<svg width="1125" height="205" viewBox="0 0 1125 205" fill="none" xmlns="http://www.w3.org/2000/svg">
<path fill-rule="evenodd" clip-rule="evenodd" d="M120.297 301.97L576.037 301.97L638.595 301.97L1124.94 301.97V78.4688C1111.51 47.7949 1086.75 23.4914 1055.83 10.63C1024.91 -2.2314 990.222 -2.65711 958.997 9.44188C932.573 19.543 910.234 38.1004 895.459 62.222C880.685 86.3436 874.306 114.675 877.316 142.8C859.954 138.224 841.517 140.181 825.503 148.3C809.49 156.419 797.015 170.135 790.447 186.843C776.901 174.42 760.151 166.032 742.088 162.626C724.026 159.22 705.371 160.932 688.23 167.568C664.317 176.684 644.989 194.901 634.479 218.232C633.478 220.454 632.564 222.705 631.739 224.98C630.957 223.388 630.134 221.814 629.272 220.259C622.428 207.918 613.22 197.046 602.175 188.264C591.129 179.481 578.461 172.96 564.894 169.072C551.328 165.185 537.129 164.007 523.107 165.607C509.086 167.206 495.516 171.551 483.174 178.394C470.832 185.237 459.959 194.444 451.175 205.488C442.392 216.533 435.87 229.199 431.982 242.764C419.901 233.963 404.995 229.932 390.125 231.444C375.254 232.957 361.466 239.906 351.405 250.959C343.459 234.406 330.143 221.03 313.625 213.009C297.107 204.987 278.36 202.792 260.436 206.781C242.969 210.667 227.286 220.203 215.803 233.891C209.114 232.063 202.125 231.587 195.245 232.491C188.155 233.424 181.331 235.804 175.199 239.484C169.067 243.163 163.756 248.064 159.597 253.882C155.438 259.699 152.52 266.31 151.023 273.303C145.172 269.033 137.949 267.076 130.742 267.806C123.536 268.537 116.853 271.905 111.978 277.262C108.142 269.221 101.693 262.717 93.6834 258.815C85.6737 254.912 76.5772 253.84 67.8797 255.775C59.1823 257.709 51.3979 262.536 45.7982 269.466C40.1985 276.395 37.1145 285.019 37.0498 293.928C32.8143 291.683 28.0918 290.513 23.298 290.521C18.7965 290.515 14.3541 291.544 10.3141 293.529C6.27415 295.514 2.74512 298.402 0 301.969H120.297C120.297 301.969 120.297 301.97 120.297 301.97Z" fill="#142748"/>
</svg>
