<svg width="431" height="430" viewBox="0 0 431 430" fill="none" xmlns="http://www.w3.org/2000/svg">
<path d="M429.912 214.955C429.912 172.441 417.305 130.882 393.685 95.5324C370.066 60.1833 336.494 32.632 297.216 16.3626C257.939 0.0931581 214.718 -4.16369 173.021 4.13038C131.324 12.4245 93.0228 32.8969 62.9608 62.9589C32.8988 93.0209 12.4264 131.322 4.13233 173.019C-4.16175 214.716 0.095137 257.937 16.3646 297.215C32.634 336.492 60.1852 370.064 95.5344 393.683C130.883 417.303 172.443 429.91 214.957 429.91C243.185 429.91 271.137 424.35 297.216 413.547C323.296 402.745 346.992 386.911 366.953 366.951C386.913 346.99 402.747 323.294 413.549 297.215C424.352 271.135 429.912 243.183 429.912 214.955Z" fill="url(#paint0_radial_3_373)"/>
<g style="mix-blend-mode:multiply">
<path d="M99.5685 120.742C97.6769 122.054 95.5751 123.032 93.354 123.635C92.4202 123.908 91.5922 124.46 90.9812 125.217C90.6422 125.488 90.1902 125.895 89.8286 126.144C88.5179 126.98 87.049 127.499 85.7383 128.403C84.5184 129.408 83.2434 130.343 81.9192 131.205C81.9192 131.205 80.0436 132.087 80.0662 130.618V130.143H80.4955C80.6311 129.126 80.7894 127.884 86.3259 125.443L86.4615 125.285C86.8457 125.127 86.8457 125.127 88.1338 123.816H87.9303C89.7382 121.963 90.9585 120.788 92.45 119.522H92.5856C93.0108 119.131 93.4559 118.761 93.9189 118.415H94.2353C94.2353 118.55 94.3709 118.618 94.8003 118.686C96.3134 118.511 97.846 118.618 99.3199 119.002C99.9753 119.296 99.9301 120.268 99.5911 120.81L99.5685 120.742ZM91.5009 116.539C91.5009 116.539 89.2411 116.313 90.6648 112.539L90.823 112.2H90.6648L90.1901 112.878L90.3483 112.449C88.6628 114.411 87.4424 116.729 86.7779 119.228C86.7779 119.861 86.4163 121.488 83.4785 123.206H83.1169H82.3938C82.3752 121.569 82.7635 119.954 83.5238 118.505H83.84C85.6027 114.37 86.0999 113.127 85.1734 111.522L82.9136 111.206C79.2075 113.195 75.9532 115.477 73.377 123.341C72.817 125.283 71.8545 127.084 70.5522 128.629L70.3489 128.742C70.2091 128.896 70.0291 129.006 69.8294 129.062C69.6296 129.118 69.4181 129.117 69.219 129.059L68.8574 128.494L69.6484 128.629C69.2868 128.11 68.6993 127.228 71.4788 121.556H71.2303C72.0012 120.087 72.6951 118.578 73.3093 117.036H73.5578H73.6708C74.5173 114.633 75.6801 112.353 77.1284 110.257H76.9702C77.7068 109.349 78.6273 108.608 79.6713 108.082C80.7152 107.556 81.8588 107.258 83.0265 107.206C84.5858 107.364 85.4672 108.811 86.8909 109.24C87.0943 109.24 87.1394 109.24 87.4332 109.24C88.7236 109.135 90.022 109.289 91.2523 109.692L91.772 109.873C92.1336 110.031 92.3144 110.664 92.337 111.816C92.3936 113.444 92.1168 115.067 91.5235 116.584L91.5009 116.539ZM87.6591 101.398C86.8967 102.521 85.9582 103.513 84.8796 104.336C84.5874 104.308 84.3034 104.224 84.0435 104.088C83.5011 103.839 82.9588 103.523 82.3938 103.297C81.8289 103.071 81.4672 103.116 81.0379 102.89C80.947 102.823 80.8702 102.738 80.8121 102.641C80.7539 102.544 80.7155 102.437 80.699 102.325C80.699 101.941 80.699 101.557 80.699 101.172C79.1145 101.305 77.5752 101.767 76.1793 102.528C75.7041 102.815 75.1498 102.941 74.5974 102.89C72.7444 102.348 75.3657 99.4775 75.7047 99.2741C76.5634 98.777 77.5803 98.7092 78.4616 98.3024C79.5537 97.8077 80.6042 97.2258 81.6028 96.5624C83.8627 95.1839 85.196 94.3025 85.8739 94.4381C85.9437 94.4486 86.0095 94.477 86.065 94.5205C86.1204 94.5641 86.1637 94.6214 86.1903 94.6867C86.2008 94.7919 86.2008 94.8979 86.1903 95.0031C86.1239 96.0591 86.223 97.1189 86.4841 98.1442C86.5288 98.5393 86.6591 98.9199 86.8659 99.2594C87.0728 99.599 87.3512 99.8893 87.6818 100.11C87.8626 100.246 87.84 100.63 87.6818 100.833C87.5972 101.028 87.4991 101.217 87.388 101.398H87.6591ZM43.4569 88.6982C42.8016 89.5569 42.5531 89.8281 42.2367 90.1896C43.2647 88.4816 44.4047 86.8434 45.649 85.2858C46.7564 83.7717 47.5925 82.0543 48.7224 80.5402V80.6532C49.4455 79.704 50.2817 78.5967 51.163 77.5346C51.163 77.5346 46.4399 84.9016 43.4569 88.8337V88.6982ZM224.243 351.719C224.243 351.109 223.972 351.109 223.814 351.109V350.838C223.61 350.138 223.294 349.211 223.068 348.578C222.548 347.177 222.797 347.177 223.068 347.155C220.673 343.833 220.673 343.833 213.419 341.234H212.266C211.204 340.33 209.848 338.974 208.876 338.047C207.905 337.121 208.221 337.098 208.537 337.098C203.046 333.935 196.266 335.019 190.798 331.81C188.922 330.839 188.538 330.839 188.267 330.839L187.431 330.251C183.16 327.991 181.51 327.743 178.075 328.24C176.677 330.198 175.82 332.489 175.589 334.884L173.329 334.771C173.081 334.319 172.742 333.709 172.471 333.257L174.143 331.946C175.047 330.816 174.934 330.816 174.843 330.816L175.25 330.206C175.431 329.573 175.702 328.737 175.883 328.104C175.883 326.409 176.041 326.409 176.244 326.409C172.493 322.093 168.448 328.669 164.335 328.85L162.911 327.065C163.499 326.274 163.522 326.274 163.567 326.274L163.861 326.003L164.516 325.754C170.617 323.494 171.047 322.387 172.177 319.653H171.612C170.346 316.195 170.098 316.127 167.521 315.314C167.521 315.02 167.86 315.02 168.199 315.042C167.657 314.342 167.657 314.342 163.522 308.014H162.731L162.188 307.291C161.217 306.207 159.928 304.738 158.866 303.676C158.663 303.178 158.866 303.178 159.25 303.201C153.352 297.529 153.352 297.529 144.177 299.246C143.134 298.068 142.19 296.805 141.353 295.472H140.562C139.138 293.777 137.579 292.196 136.245 290.41H137.036L136.856 290.162C134.384 288.755 131.657 287.856 128.833 287.518C128.935 285.976 129.246 284.455 129.76 282.998C129.76 282.614 129.556 282.614 129.398 282.614C129.664 281.118 129.852 279.609 129.963 278.094C130.121 277.597 130.302 277.597 130.483 277.62L129.669 276.264H129.511C128.788 277.801 127.771 279.834 126.935 281.326C125.172 280.151 123.816 278.411 121.963 277.303H123.138C121.704 276.713 120.17 276.406 118.619 276.399C117.353 276.987 117.421 276.987 117.466 277.01C116.454 278.014 115.803 279.325 115.613 280.738C114.867 281.913 114.664 281.891 114.461 281.891C111.862 277.371 110.574 275.111 106.167 278.004L104.201 276.987C103.975 276.173 104.201 276.173 104.427 276.196C103.817 274.908 102.981 273.236 102.303 271.993C95.9528 272.286 96.0431 278.976 96.1335 283.879L94.9132 281.891C94.4161 280.49 94.2579 280.467 94.0771 280.467C93.7124 278.788 93.508 277.078 93.4669 275.36H93.8963V275.111C94.2805 273.371 94.7551 271.044 95.0941 269.304L93.4443 268.015C91.4915 269.061 89.6961 270.377 88.1111 271.925C83.9983 274.727 83.1621 279.676 80.5182 283.45L78.1227 283.269C77.4275 281.919 76.6024 280.64 75.6595 279.45C74.3036 278.501 73.9872 278.456 73.6708 278.433L71.7048 277.62C71.5014 277.959 71.2076 278.388 70.9816 278.704C69.7484 279.66 68.4662 280.55 67.14 281.371C64.27 280.038 64.27 280.038 62.6204 277.077H62.0779C61.2469 275.375 60.5591 273.606 60.0215 271.789H60.4735C59.9598 269.471 59.6572 267.111 59.5695 264.739C59.4113 263.993 59.2531 263.97 59.1175 263.948C59.1175 262.411 59.1175 260.332 59.1175 258.795H59.4565C59.9886 256.587 59.7658 254.264 58.8237 252.197C57.8746 250.683 57.6713 250.637 57.4679 250.615C56.5282 249.209 55.4697 247.886 54.3041 246.66C52.863 247.188 51.4899 247.886 50.2138 248.739C48.8353 248.084 46.9371 247.315 45.4908 246.796C45.4908 246.073 45.4908 245.101 45.4908 244.378C45.4908 243.655 45.8975 243.496 45.9879 243.519C46.282 241.133 46.282 238.719 45.9879 236.333C45.9879 235.451 45.762 235.451 45.649 235.429C45.6666 233.581 46.2503 231.782 47.3213 230.276H47.5021C48.6307 228.203 49.1478 225.852 48.9935 223.497C48.7676 222.457 48.632 222.435 48.4964 222.412L47.8862 220.039C46.4499 219.543 44.9274 219.345 43.412 219.458C41.8965 219.57 40.4199 219.991 39.0729 220.695C38.5983 223.565 38.7114 226.48 38.3046 229.35C34.5307 229.779 34.4403 229.87 32.6776 232.016C30.4178 231.022 30.4178 231.022 28.5874 226.661L29.0845 226.774C27.7502 223.971 26.8073 220.997 26.2823 217.938H25.9207C25.7851 216.627 25.6721 214.864 25.6721 213.531C25.6721 212.198 25.8981 212.492 25.9885 212.514C26.1015 208.514 26.1466 207.994 26.4856 204.492H26.2371C26.4304 202.739 26.7783 201.008 27.2766 199.317H27.5026C28.2732 196.777 28.7213 194.15 28.8359 191.498H28.4743C28.3727 189.927 28.7174 188.361 29.4686 186.978L29.9432 186.503L30.689 185.735L31.299 185.351C33.2642 183.884 34.8905 182.011 36.0674 179.86C40.4515 179.295 41.9429 180.289 43.8863 183.362H46.1461C46.8241 181.916 46.7111 181.893 46.5981 181.871L46.7789 181.17L48.4738 179.837C49.8749 180.063 49.8748 180.063 57.1289 179.159C57.4452 180.492 57.9198 182.255 58.304 183.679L60.5638 183.136C62.6429 190.232 63.5242 197.577 65.0835 204.74H66.6654C67.7479 203.182 68.5861 201.467 69.1512 199.656C69.1512 198.594 69.1513 198.594 68.9705 198.571C69.1142 197.069 69.1595 195.559 69.1061 194.051C69.219 193.328 69.3771 193.351 69.5579 193.373C69.3997 191.114 69.2641 188.718 69.1285 186.391C68.88 185.351 68.6993 185.328 68.5185 185.306C68.3829 184.04 68.1117 182.345 67.8406 181.103C68.0891 180.018 68.2247 180.04 68.3603 180.04C68.7183 178.524 69.3926 177.099 70.3389 175.861C71.2851 174.623 72.4821 173.598 73.8516 172.854C74.846 171.882 76.1115 170.594 77.0154 169.487C77.9194 168.38 78.2583 168.154 78.326 168.176C79.9007 165.926 81.7281 163.864 83.7723 162.03C87.8174 160.222 87.8174 160.222 89.5348 158.414L89.3089 156.493H89.919C89.2276 154.009 89.0356 151.413 89.354 148.855H88.8569C90.371 149.103 94.3709 149.736 94.7777 144.335H95.2747C95.5096 143.149 96.1103 142.066 96.9922 141.239L99.0488 140.38C99.4821 139.422 99.7568 138.399 99.8623 137.352H99.4329C102.936 134.301 106.755 137.217 110.393 136.719L111.139 134.708C111.139 133.443 111.139 133.465 111.478 133.465C110.483 129.352 110.732 128.946 112.088 126.37H111.885C114.461 124.11 118.777 125.578 120.924 122.279H121.24L122.822 120.63C123.274 123.07 122.822 125.556 123.297 128.019L125.556 127.68L126.257 127.319C131.116 123.951 137.149 123.725 142.392 121.375C143.59 120.065 143.613 119.974 143.635 119.884C143.635 119.206 143.635 118.279 143.635 117.624C143.341 116.494 143.161 116.494 142.98 116.494C142.98 115.816 142.709 114.935 142.573 114.234C141.244 114.742 140.03 115.51 139.002 116.494C138.189 116.324 137.366 116.196 136.539 116.11C136.697 115.319 136.878 114.257 137.014 113.466C135.608 113.232 134.169 113.294 132.788 113.647L132.2 111.613C132.336 111.319 132.517 111.342 132.72 111.342C134.98 107.342 134.98 107.342 134.37 104.698H133.624L131.59 103.929C130.965 104.178 130.313 104.352 129.647 104.449L129.037 104.765C126.008 106.347 122.641 107.025 119.5 108.359C120.219 106.835 121.042 105.362 121.963 103.952H121.67C124.472 100.607 128.924 100.811 132.426 98.9803L132.697 98.777C134.052 99.1054 135.375 99.5515 136.652 100.11C136.833 101.837 136.878 103.574 136.788 105.308C141.443 104.359 141.669 103.432 142.257 100.946L142.686 100.675C145.081 99.1159 145.081 99.1159 151.025 98.4154H151.228C152.328 97.2935 153.506 96.2514 154.753 95.2969C154.957 96.0426 155.251 97.0369 155.477 97.7826C147.183 107.613 147.386 109.489 147.545 111.003C154.731 111.003 154.731 111.003 156.064 111.681C156.715 111.921 157.379 112.125 158.053 112.291L158.799 111.635L161.058 111.477L162.663 112.878C163.635 112.404 163.748 112.404 163.838 112.404C164.516 109.986 164.516 109.986 163.363 105.624H162.979C162.626 104.211 161.835 102.946 160.719 102.009L158.64 102.393L157.013 101.082H157.759L155.974 99.9747C156.731 98.5206 157.568 97.1098 158.482 95.7488C159.07 94.6415 159.002 94.6415 158.889 94.6415C159.793 93.4212 160.923 91.7715 161.736 90.506H162.075C162.075 89.828 162.075 88.9241 162.075 88.2462C158.957 86.7547 158.776 85.8282 158.708 84.2011H158.211C157.744 82.7744 157.139 81.3968 156.403 80.0882H157.104C155.64 79.6413 154.115 79.4278 152.584 79.4555C152.152 77.8893 152.044 76.2513 152.268 74.642C152.268 73.9641 152.064 73.9641 151.906 73.9641C151.906 73.3088 151.906 72.45 151.906 71.8172C151.906 70.0772 151.906 70.0772 152.155 70.0772C151.997 68.7665 151.793 67.0264 151.657 65.6931C151.522 64.3598 151.228 64.3598 151.093 64.3372L148.833 64.0208C147.14 65.8121 145.261 67.4181 143.228 68.8117C141.826 68.5189 140.466 68.0481 139.183 67.4106C139.183 66.6874 139.319 65.7383 139.364 65.0378L141.014 63.7045L142.731 62.326L141.443 60.2921C140.946 59.9531 141.443 59.9983 141.85 60.0209L139.59 59.117C138.731 56.473 137.85 53.716 131.07 55.8629C129.986 56.7668 129.986 56.7668 123.703 64.4502L121.557 65.196C121.059 73.6025 121.014 74.1222 115.093 77.8058L113.444 77.0148H113.896L111.794 76.4951C105.964 90.8676 105.964 90.8676 102.755 90.4156C102.574 89.8055 102.348 88.9919 102.19 88.3817L103.749 86.4835H104.02C104.766 85.2406 105.693 83.5232 106.28 82.2125H105.896L106.032 81.896L104.382 83.4102C104.382 82.7548 104.495 81.8961 104.54 81.1503C104.766 79.9978 104.54 79.9978 104.54 79.9753C105.217 78.6725 105.814 77.329 106.325 75.9527H106.755C106.755 75.2973 106.574 74.4386 106.506 73.8059C103.614 74.1223 99.2522 74.6194 98.0771 68.8117C97.7155 68.2015 97.4894 68.1789 97.2634 68.1337L95.772 67.84L95.0714 67.9981L95.1844 67.7948H94.8454L96.224 65.7835C97.3087 63.9982 97.4442 64.0208 97.5798 64.0434V63.4785C98.6316 61.6454 99.9577 59.9841 101.512 58.5521H101.263C102.372 57.3309 103.573 56.1976 104.857 55.1623C106.936 53.9872 109.037 52.9025 111.139 51.7726C111.736 51.491 112.304 51.1503 112.834 50.7557C114.286 49.899 115.796 49.1439 117.353 48.4958L119.093 49.6709L120.879 48.5862C121.218 48.3602 121.285 48.3602 121.331 48.3828L124.653 45.5129C123.862 48.2246 123.862 48.2246 120.494 50.4619C121.737 50.4619 121.737 50.4619 127.455 49.2416C127.184 49.9421 126.845 50.8686 126.596 51.5014L128.856 52.089L130.618 50.3263C130.957 49.6709 131.093 49.6935 131.251 49.6935V49.219C130.901 47.8092 130.901 46.3351 131.251 44.9253C131.251 44.3603 131.251 44.3377 131.093 44.3151H130.799H130.664L130.031 44.5185C129.195 44.1118 129.082 44.0891 128.969 44.0891V43.7954L130.46 42.1683C134.505 44.2022 139.658 40.9932 141.579 37.8068C141.443 37.2419 141.285 37.2193 141.149 37.2193V36.9933C144.291 34.982 144.652 35.0273 147.454 35.3436L148.132 34.8917H148.29L148.539 34.7109L149.94 33.6713L148.494 35.3662C148.675 35.999 148.946 36.8351 149.126 37.4679C147.826 38.8069 146.295 39.9015 144.607 40.6994L145.94 42.2361C147.341 41.2644 147.341 41.2644 150.46 38.982L151.002 41.2418L150.121 41.6712C147.251 42.8689 144.901 45.1739 141.737 45.784C141.382 45.687 141.019 45.6264 140.652 45.6032L139.115 45.4225L138.89 45.5806C136.78 46.8802 135.05 48.7117 133.873 50.8913C140.449 49.7839 143.07 51.0494 143.906 55.6821L145.33 54.7555C146.211 56.4504 146.98 57.9419 149.624 57.7385H149.872L151.454 56.0437L153.307 57.2414L155.364 56.2696C155.703 55.3883 155.612 55.3657 155.499 55.3657C155.938 54.288 156.175 53.1391 156.2 51.976H156.719C156.149 50.6085 155.798 49.1594 155.68 47.6823C156.109 46.8462 156.042 46.8461 155.974 46.8461L156.268 46.5976L158.256 47.2755L159.183 49.3094L161.443 49.7161L162.211 49.2642C163.252 48.7163 164.263 48.1128 165.239 47.4563L166.889 45.9422L165.691 44.2248H166.64L164.878 42.9592C164.878 42.2587 164.652 41.3096 164.539 40.5864L162.46 39.9537C161.623 39.2079 161.51 39.2079 161.42 39.2079V38.982L162.708 36.9255C163.228 36.2927 163.296 36.2927 163.386 36.2927L164.584 34.5753L162.934 32.6544C161.375 31.7053 161.149 31.7053 160.945 31.6827V31.4567C160.742 30.7562 160.493 29.807 160.313 29.1969C160.313 28.8353 160.539 28.8579 160.674 28.8579C160.81 28.2478 160.968 27.4116 161.081 26.7789C158.414 25.423 157.51 24.971 152.516 25.9427C148.358 28.7901 148.358 28.7901 146.121 29.3325L147.974 27.9088C148.81 27.4116 148.855 27.4116 148.901 27.4116L149.714 26.8919C150.981 26.0566 152.189 25.1355 153.33 24.1349C150.521 24.3578 147.785 25.1428 145.285 26.4432C142.785 27.7437 140.572 29.5331 138.776 31.7053L140.63 33.1064C140.317 34.0041 139.779 34.8063 139.066 35.4356C138.354 36.0649 137.491 36.5002 136.562 36.6995H136.404C135.063 37.2735 133.771 37.9536 132.539 38.7334C133.014 38.1458 133.647 37.3775 134.144 36.8125C134.641 36.2475 134.483 36.4058 134.415 36.3832C134.844 35.886 135.387 35.1855 135.793 34.6883L133.534 35.1403C133.873 34.5527 134.325 33.7844 134.641 33.1968C134.765 33.1499 134.901 33.1499 135.025 33.1968C135.884 32.2251 137.082 30.9369 137.986 30.033C138.889 29.1291 139.025 28.9483 138.957 28.9257C133.873 29.3551 131.183 33.8521 127.093 35.9538C125.918 36.4736 124.359 37.2193 123.229 37.7842C124.167 36.7028 125.212 35.7186 126.347 34.8465H126.189L128.449 33.2872C130.166 32.1573 130.189 32.1799 130.234 32.1799L131.183 31.5923C130.754 31.5923 130.754 31.5923 121.986 36.338C120.58 36.1349 119.206 35.7552 117.896 35.208L119.139 33.2646L119.862 32.903C122.225 32.9161 124.555 32.3414 126.641 31.2308H126.754L127.093 31.05C128.413 30.2915 129.512 29.2008 130.28 27.8862C131.364 26.8693 131.296 26.8693 131.251 26.8467C132.463 26.0303 133.715 25.276 135.003 24.5869C135.342 24.4513 135.364 24.4513 135.387 24.5869C139.387 22.779 139.387 22.779 140.833 21.2197L141.421 20.9937C142.686 20.5417 144.336 19.8864 145.556 19.3667L146.37 19.0729C148.489 18.5016 150.441 17.4324 152.064 15.9543C152.313 15.7509 152.222 15.7057 152.064 15.6831C150.482 16.1125 148.923 16.6549 147.341 17.1068L149.42 15.7509C150.528 14.7114 150.505 14.6888 150.482 14.6662L150.844 14.5306C151.975 14.1122 153.083 13.6371 154.166 13.1069C150.449 13.4612 146.811 14.3993 143.387 15.8865H145.646C144.268 16.5645 142.415 17.4232 141.127 18.0333L143.206 17.717C141.985 18.2819 140.381 19.0503 139.161 19.5926L138.935 21.6717C137.873 22.1462 137.873 22.1462 129.421 26.5529L129.692 26.3721L133.94 23.9315L135.907 22.8242L133.895 22.2366C135.003 21.4909 136.494 20.5192 137.601 19.7508C138.709 18.9825 138.46 19.2085 138.438 19.2085L140.358 18.3045C139.048 18.0334 135.048 17.1972 124.381 23.4343L125.941 23.7055L127.071 23.231L129.014 22.44C124.698 24.9032 120.63 27.7732 116.088 29.8071C116.924 28.9935 118.099 27.9088 119.003 27.1631L119.319 26.9597L121.037 25.6942L118.596 25.5134L120.856 24.3383H120.427L122.234 23.1632L120.133 23.8411C121.195 22.779 121.127 22.8242 121.059 22.8468L116.834 24.7677L120.969 22.5078H120.833C123.032 21.2738 125.295 20.1574 127.613 19.1633C124.223 20.7677 119.681 22.8242 116.314 24.5417C99.8622 33.8521 98.2351 34.8239 86.936 42.9819L77.2414 50.6653L76.9928 50.8686C75.2076 52.4053 72.8348 54.4844 71.0947 56.0437C65.7319 60.8597 60.6608 65.991 55.9086 71.4105L57.7617 69.467C58.191 69.0151 58.191 69.0376 58.1684 69.0602C61.6712 65.3315 61.6712 65.3315 63.253 63.7271L63.6824 63.2977L64.4959 62.4841C48.9483 78.9357 1.60501 129.036 9.35622 202.458L10.4409 202.593C10.5539 201.961 10.7347 201.125 10.8476 200.492C10.8476 198.955 10.7121 198.91 10.6443 198.865C10.5087 197.464 10.3279 195.588 10.1471 194.187C9.96631 192.786 10.1471 193.012 10.1471 193.057L10.0115 191.814C10.0115 190.21 10.0116 190.21 10.6217 184.809L10.4409 184.696C10.4409 183.34 10.4409 181.509 10.4409 180.176C10.4409 178.843 10.599 179.091 10.6668 179.136C10.7323 176.67 10.9437 174.21 11.2996 171.769C11.2996 170.798 11.2996 170.753 11.2996 170.707V169.464C11.2996 168.154 11.5256 166.391 11.6838 165.08L11.8194 165.193C12.1748 163.573 12.6663 161.985 13.2883 160.448C12.7685 200.017 12.3618 231.271 22.3276 241.914L24.5874 241.621C25.7297 242.738 26.6565 244.055 27.3217 245.508L29.2879 245.801H29.1523C29.3331 245.191 29.6042 244.378 29.8076 243.768L32.0675 243.044C65.6937 288.241 65.6937 288.241 70.0551 290.004L71.4562 287.879C71.6144 285.959 71.75 285.981 71.8856 286.004L73.7387 284.874C77.603 288.557 77.603 288.557 82.778 335.178C83.0492 337.889 155.296 412.012 156.019 412.622C165.307 420.147 174.911 427.921 199.679 429.797L202.639 430L200.538 429.842L199.069 429.729L197.306 429.435L195.046 428.893L194.73 428.757L193.125 428.147H193.261C191.578 427.954 189.928 427.536 188.357 426.904L190.617 427.266C191.069 427.017 191.001 426.994 190.933 426.994L188.854 426.136L188.696 425.819C189.989 425.932 191.29 425.932 192.583 425.819C192.018 424.802 191.973 424.802 191.928 424.802L191.272 423.582H191.408C190.158 422.722 188.816 422.002 187.408 421.435H187.024L184.967 420.509C184.222 419.853 184.312 419.853 184.38 419.853L183.069 418.045C188.176 421.751 188.267 421.819 191.973 421.48C192.651 420.079 192.673 420.079 192.718 420.079C192.877 419.447 193.103 418.565 193.283 417.932C193.464 417.3 193.035 417.639 192.967 417.639V417.39C192.447 415.831 192.538 415.831 192.606 415.831L193.826 413.978C194.029 412.938 193.826 412.938 193.826 412.938V412.712L195.295 411.198C195.543 410.882 195.589 410.882 195.656 410.882C195.543 410.204 195.408 409.3 195.317 408.622C194.459 407.56 194.323 407.56 194.187 407.537C193.939 406.927 193.577 406.091 193.329 405.458C193.464 405.187 193.509 405.187 193.577 405.187C196.899 401.78 201.389 399.761 206.142 399.537C206.674 399.221 207.244 398.971 207.837 398.792L208.108 398.475L208.922 396.215C209.374 394.634 209.283 394.634 209.193 394.634L210.323 392.668C210.955 391.718 211.046 391.718 211.136 391.718C211.74 390.292 212.003 388.745 211.905 387.199H211.498C211.498 386.521 211.701 385.617 211.769 384.939C211.837 384.261 212.198 384.058 212.311 384.058C212.7 382.46 212.897 380.821 212.899 379.176H212.402L211.656 376.781C211.656 375.832 211.837 375.832 211.995 375.832C211.977 374.798 212.215 373.777 212.689 372.858C213.162 371.939 213.855 371.152 214.707 370.566H214.548C215.588 369.504 216.921 368.035 217.87 366.905H218.119C219.678 365.29 220.906 363.387 221.735 361.301H221.351C221.577 360.646 221.916 359.787 222.164 359.041C222.91 357.369 223.045 357.369 223.181 357.369C223.861 355.663 224.361 353.891 224.672 352.081L224.243 351.719Z" fill="#00EDA3"/>
<path d="M157.963 12.8367L156.382 13.3565C153.127 14.4638 153.127 14.4638 152.856 14.4412C153.014 14.0796 153.421 14.17 153.67 13.9666C153.218 13.7858 152.811 14.0796 152.382 13.9666C153.603 13.3962 154.884 12.9642 156.201 12.6785H156.517L158.777 12.1814C159.624 11.9225 160.494 11.7484 161.376 11.6616C160.305 12.1502 159.194 12.5434 158.054 12.8367H157.963Z" fill="#00EDA3"/>
<path d="M160.019 14.7118C156.968 15.9999 156.991 15.9322 157.081 15.6836C157.353 15.0508 157.511 14.983 159.183 14.3277C159.838 14.0791 159.906 14.0339 159.974 13.9661C159.499 13.8079 159.002 13.9661 158.55 13.9661C160.688 12.7898 163.054 12.0884 165.488 11.9097C166.46 12.3616 160.245 14.8022 160.155 14.8022L160.019 14.7118Z" fill="#00EDA3"/>
<path d="M146.302 24.8585C145.663 25.2282 144.979 25.5167 144.268 25.7172C141.037 25.9206 141.037 25.9206 140.992 25.898C140.675 24.7681 147.477 22.802 148.268 22.5986H148.72C148.11 23.4122 148.11 23.4122 148.155 23.48C147.637 24.0366 147.005 24.4758 146.302 24.7681V24.8585Z" fill="#00EDA3"/>
<path d="M162.054 22.7798C161.218 23.4636 160.183 23.8593 159.104 23.9082C158.025 23.957 156.959 23.6564 156.065 23.0509C155.703 22.8476 155.139 22.5086 153.082 22.9154L152.269 22.3052C152.63 21.5369 152.63 21.5369 155.003 19.6612C155.568 19.2544 155.681 18.5313 156.155 18.0341C156.291 18.0341 156.63 17.6048 157.534 16.9268C159.23 15.6133 161.164 14.6388 163.229 14.0568L162.845 14.2376L163.658 13.9438C163.138 14.1472 163.138 14.1472 162.144 15.2546H161.895C161.675 15.6297 161.434 15.9919 161.172 16.3393C160.652 16.7746 160.109 17.182 159.545 17.5596H159.726C158.573 18.3065 157.517 19.1947 156.585 20.2036C157.014 20.4974 157.511 20.2036 157.963 20.3844C158.415 20.5652 158.912 20.6781 159.387 20.7911L160.133 20.9267C160.813 21.0397 161.5 21.1001 162.189 21.1075C162.573 21.1075 162.89 21.4465 162.822 22.1018H162.46C162.474 22.2467 162.445 22.3924 162.376 22.5209C162.308 22.6493 162.204 22.7551 162.076 22.825L162.054 22.7798Z" fill="#00EDA3"/>
<path d="M250.208 47.0727C250.449 48.0535 250.394 49.0837 250.05 50.0331V50.3043C248.288 50.5755 247.361 51.0726 247.225 51.7506C246.796 52.6521 246.11 53.4073 245.254 53.9217C244.398 54.4361 243.41 54.687 242.412 54.6431C241.745 54.3553 241.178 53.8755 240.785 53.2647C240.355 52.5867 239.904 51.9088 238.028 51.9088C237.468 52.0112 236.902 52.0791 236.333 52.1121C235.961 52.0833 235.613 51.9136 235.361 51.6376C234.909 51.1856 231 47.3213 232.537 45.1745C232.672 44.9711 233.147 44.9485 233.327 44.9259C234.982 44.8985 236.59 45.4772 237.847 46.553H239.384C240.962 46.2811 242.487 45.7625 243.903 45.0163C244.145 44.7974 244.442 44.6489 244.762 44.5869C246.159 44.7398 247.511 45.17 248.739 45.8524H249.282L249.734 46.1462C250.026 46.453 250.257 46.8138 250.412 47.2083L250.208 47.0727Z" fill="#00EDA3"/>
<path d="M81.6247 229.734L80.9694 230.457C80.0202 231.474 77.4666 230.796 76.2689 229.847C76.1382 229.754 76.017 229.648 75.9072 229.531C75.8162 229.405 75.7182 229.284 75.6136 229.169C75.4328 228.966 75.2068 228.65 75.026 228.424C73.5797 226.661 71.8623 225.102 70.5064 223.339C69.9188 222.638 69.625 221.78 69.06 221.079C68.0657 219.814 65.241 219.588 62.7552 219.384C57.3994 218.955 57.3993 218.955 57.0151 218.752C56.6309 218.548 55.9982 218.187 55.9982 216.492C55.9982 216.221 55.9982 215.882 55.9982 215.633L56.4502 215.475V215.271C58.684 214.284 61.0529 213.637 63.4782 213.351C65.3155 213.501 67.0789 214.141 68.5854 215.204C70.0274 216.649 71.2873 218.266 72.3368 220.017H71.4781C73.7379 222.751 75.5683 224.085 76.7886 223.994C78.0089 223.904 78.8451 225.169 79.6586 226.254H80.4269C81.8958 228.808 81.7377 229.531 81.6699 229.667L81.6247 229.734Z" fill="#00EDA3"/>
<path d="M111.929 242.638C111.889 243.088 111.741 243.522 111.5 243.903C111.097 244.429 110.643 244.914 110.144 245.35C109.973 245.476 109.778 245.567 109.571 245.617C109.364 245.668 109.149 245.676 108.938 245.643C108.728 245.609 108.527 245.534 108.346 245.421C108.165 245.309 108.008 245.162 107.884 244.988C106.528 243.316 106.641 238.615 108.924 238.706C110.732 238.977 111.184 241.485 111.319 242.254H111.862V242.593L111.929 242.638Z" fill="#00EDA3"/>
<path d="M351.223 129.398C351.422 130.014 351.487 130.666 351.413 131.309C351.339 131.953 351.128 132.573 350.793 133.127C350.635 133.398 350.161 133.941 349.031 133.331C346.116 131.771 345.279 126.054 346.771 125.466H346.929C347.652 125.466 348.533 126.144 349.663 127.545H350.161C350.595 128.158 350.945 128.827 351.2 129.534L351.223 129.398Z" fill="#00EDA3"/>
<path d="M335.45 132.789C335.586 133.263 335.586 133.263 335.202 134.19C335.103 134.406 334.943 134.589 334.743 134.718C334.543 134.846 334.31 134.915 334.072 134.915C333.834 134.915 333.601 134.846 333.4 134.718C333.2 134.589 333.041 134.406 332.942 134.19C332.838 133.537 332.9 132.869 333.123 132.246C333.162 132.142 333.215 132.043 333.281 131.952C333.281 131.952 333.439 131.817 333.507 131.726C333.575 131.636 333.507 131.5 333.665 131.41C333.763 131.303 333.888 131.225 334.027 131.184C334.75 131.184 335.292 132.269 335.45 132.811V132.789Z" fill="#00EDA3"/>
<path d="M369.211 138.912C369.73 140.855 368.171 142.324 366.951 141.601L366.544 141.33C365.708 140.697 364.985 139.884 364.149 139.273C363.312 138.663 362.612 138.437 361.889 137.895C361.375 137.519 360.905 137.087 360.488 136.607C359.358 135.319 360.691 134.867 360.962 134.776H361.166C362.511 134.64 363.866 134.64 365.211 134.776C366.122 135.171 366.905 135.812 367.47 136.629L367.9 136.516L368.397 137.217C368.729 137.764 368.994 138.348 369.188 138.957L369.211 138.912Z" fill="#00EDA3"/>
<path d="M289.778 83.3885C290.042 83.9561 290.188 84.571 290.208 85.1964H289.959C290.077 86.2177 289.88 87.2507 289.394 88.1567C288.53 89.3954 287.554 90.5527 286.479 91.6143C285.372 92.4504 284.219 93.0379 282.14 91.0945C281.282 90.2809 279.88 88.6313 280.513 87.6143C280.667 87.4226 280.762 87.1901 280.786 86.9453C280.81 86.7005 280.763 86.454 280.649 86.2359C280.084 84.7218 278.66 83.75 278.186 82.1908C277.914 81.3772 277.914 81.3772 278.683 80.1343H279.655C280.152 79.8857 280.219 79.8179 280.31 78.5298C280.4 77.2417 280.491 76.5864 282.073 76.27C283.07 76.2964 284.044 76.5835 284.896 77.1029C285.749 77.6223 286.45 78.3558 286.931 79.2304H287.383C288.313 80.5445 289.115 81.9445 289.778 83.4111V83.3885Z" fill="#00EDA3"/>
<path d="M310.886 87.3431C311.112 88.2058 311.112 89.1121 310.886 89.9748C310.661 90.8376 310.217 91.6278 309.598 92.2695C308.233 92.552 306.82 92.4899 305.485 92.0887C302.027 91.5238 301.688 91.6368 301.236 92.0887C300.784 92.5407 301.236 94.3486 299.926 94.4842C299.621 94.4787 299.33 94.3575 299.112 94.1452C298.833 93.8054 298.63 93.4097 298.517 92.9847C298.404 92.5598 298.384 92.1155 298.457 91.682C296.491 91.23 293.395 93.8288 292.536 91.1622C292.084 89.8289 293.847 83.2076 294.434 82.0099C294.645 81.6176 294.804 81.1998 294.909 80.767C294.299 79.9986 293.892 79.8179 290.638 78.8914C288.107 78.1908 286.118 77.6258 280.83 72.2926C278.729 70.1684 277.689 67.5018 279.452 67.5922C281.711 67.7052 281.711 67.7052 281.711 67.0951C281.711 66.1007 281.712 64.4059 282.954 64.0669L284.83 64.677L289.35 64.903L286.841 65.242C289.96 65.1064 292.559 65.242 292.898 68.4058H293.078C292.965 72.3379 292.965 72.3378 295.203 74.1909H294.705C296.129 75.366 297.53 76.5864 298.954 77.7841H299.474C301.982 79.7727 304.965 81.0156 307.474 83.0268H306.909C308.359 84.0177 309.558 85.3331 310.411 86.8685H310.728L310.886 87.3883V87.3431Z" fill="#00EDA3"/>
<path d="M406.092 299.834C404.737 303.257 403.041 306.536 401.03 309.619L400.668 309.845C400.51 309.574 400.668 308.761 401.685 306.23H401.505C402.16 304.557 402.657 303.337 403.403 301.529H403.584C403.99 300.557 404.216 300.015 404.488 299.45C405.572 297.552 406.521 297.371 406.747 297.665C406.973 297.959 406.883 298.004 406.182 299.925L406.092 299.834ZM394.431 108.472C394.689 108.821 394.852 109.23 394.906 109.66C394.96 110.09 394.902 110.527 394.739 110.928C394.576 111.329 394.312 111.682 393.973 111.953C393.634 112.223 393.232 112.402 392.804 112.472C391.779 111.943 390.803 111.323 389.889 110.619L390.228 110.438C385.392 107.297 386.273 112.698 386.273 112.698C386.703 114.461 386.703 114.461 386.545 114.799C386.386 115.138 385.912 115.5 384.465 115.816C383.019 116.133 384.081 118.076 383.381 119.025C383.223 119.025 383.132 119.025 382.974 118.664C382.273 117.285 381.731 115.839 381.031 114.461H381.234C379.754 112.381 378.425 110.199 377.257 107.93H377.144C376.647 106.325 376.421 104.653 375.878 103.048H376.014C375.264 100.923 374.397 98.8403 373.415 96.8113L373.144 96.1334C372.082 93.3086 372.669 93.1278 373.144 93.286C375.777 95.4317 378.178 97.8479 380.307 100.495C380.714 100.969 380.827 101.015 381.008 101.082C381.189 101.15 381.505 98.1672 378.748 93.5798C377.279 90.7776 378.748 90.6194 378.748 90.6194C378.748 90.6194 379.426 90.8228 380.217 92.8792V93.5571C380.556 94.7548 380.601 94.913 381.211 95.478C382.499 96.6757 384.172 97.3084 385.528 98.4157C390.047 102.257 392.691 104.382 394.725 108.359L394.431 108.472ZM387.652 87.7042C387.914 88.0936 388.134 88.5103 388.307 88.9471H388.059C387.742 88.6307 387.471 88.2917 387.155 87.998C388.437 90.5203 389.95 92.9183 391.674 95.1616C391.685 95.0942 391.685 95.0256 391.674 94.9582C397.777 102.566 403.043 110.809 407.38 119.545C407.987 120.65 408.428 121.838 408.691 123.07C407.464 122.295 406.454 121.222 405.753 119.952V120.065C404.962 118.686 404.239 117.398 403.29 115.545C402.612 114.302 402.273 113.647 401.934 112.969C401.934 112.449 401.934 112.201 399.878 107.817C399.285 106.367 398.259 105.135 396.94 104.291C396.94 104.291 396.94 104.111 396.94 104.043C396.352 103.704 396.352 103.704 392.42 98.6417V98.7548C391.358 97.4215 390.499 96.3819 389.55 95.252L389.279 94.8904C387.643 92.8691 386.133 90.7484 384.759 88.5403C383.607 86.6195 383.607 86.6195 383.562 86.2805C383.87 86.2571 384.18 86.2571 384.488 86.2805C384.488 85.9189 384.488 85.8059 382.364 82.6196L381.189 80.8569C382.499 80.8569 387.516 87.6364 387.561 87.6364L387.652 87.7042ZM331.698 47.9086C331.852 48.0246 331.996 48.1531 332.128 48.2928L332.557 48.8577L331.879 49.1741C330.188 48.7626 328.631 47.9221 327.36 46.7335L327.066 46.4397C326.614 46.033 325.823 45.3324 326.478 45.3324C328.363 45.8466 330.124 46.7384 331.653 47.9538L331.698 47.9086ZM285.146 11.7514C283.813 11.322 282.027 10.7797 280.626 10.3955C285.96 12.2486 294.909 15.3445 303.089 18.8924C303.272 18.9725 303.446 19.0709 303.609 19.1862L301.62 18.5309C300.581 18.1919 300.513 18.1467 300.468 18.1015L301.213 18.7569L305.733 21.0167L306.185 21.2653L306.366 21.4912L307.79 22.9375C306.863 22.8019 306.863 22.9375 306.863 22.9375C307.985 23.9086 309.021 24.9747 309.959 26.1239C311.179 26.8244 312.761 27.7962 313.959 28.5419L313.145 28.2255L312.874 28.0899L307.903 25.4233C307.396 25.1205 306.867 24.8561 306.321 24.6324L305.259 24.1578C305.439 24.3386 305.439 24.3386 317.19 31.2763C316.038 30.7565 314.524 30.0108 313.417 29.4458C315.676 32.2254 315.676 32.2254 320.377 35.1632H318.366C318.546 35.4796 318.795 35.8863 318.976 36.2253C317.451 35.751 315.987 35.0987 314.614 34.2819C313.665 33.7847 313.62 33.8073 313.575 33.8299L311.609 32.9486L313.642 32.813C312.739 29.3103 311.767 28.9035 305.485 26.3725C304.829 26.1465 304.807 26.1917 304.784 26.2143L302.773 25.5137C301.559 26.1504 300.17 26.3727 298.818 26.1465C297.214 25.6719 297.281 25.6493 297.349 25.6267C296.038 25.2652 296.038 25.2652 288.039 23.3669H287.79C286.253 23.0279 284.152 22.6438 282.592 22.4178C282.592 23.0731 282.592 23.9093 282.457 24.6776C282.321 25.4459 282.705 25.0844 282.683 25.0844C283.519 26.4177 284.581 28.2029 285.372 29.604C304.49 67.1398 304.49 67.1398 311.292 64.541L310.614 62.4393C310.411 61.8518 310.479 61.8292 310.614 61.8292L310.004 59.7049C314.524 62.6201 317.846 66.9364 321.755 70.5747C324.015 69.7612 324.625 69.49 326.523 66.3714C326.298 65.6935 326.004 64.8121 325.8 64.1116C324.783 62.9817 324.693 63.0043 324.625 63.0043C323.683 61.8554 322.836 60.6309 322.094 59.3433C321.529 58.1456 320.716 56.5638 320.06 55.3886C318.818 53.8294 318.75 53.852 318.682 53.852C317.073 52.4714 315.135 51.5295 313.055 51.1176H313.417C310.908 49.2193 310.908 49.2193 310.027 47.1403L310.705 45.0838C310.123 44.0861 309.465 43.1343 308.739 42.2365C307.486 40.9799 306.15 39.8096 304.739 38.7337C303.405 37.7846 303.383 37.7846 303.383 37.8072L305.259 36.7225C308.083 37.649 308.309 37.7168 310.637 41.6715C312.739 46.1912 312.897 46.4171 322.908 53.1288C325.71 47.7052 329.845 51.0272 332.083 52.8124C328.286 55.366 328.286 55.3661 327.563 56.6542L332.083 58.914L330.297 60.2699C330.591 63.0721 330.682 63.75 336.422 70.1453C335.97 71.1849 335.744 71.2526 335.518 71.2978C331.269 70.6199 329.574 72.1566 329.032 72.8571H328.761L327.156 73.5576H326.569L325.959 73.6932H325.484H325.168H324.919H324.783L323.834 74.2356C322.84 73.7611 322.704 73.7837 322.546 73.8063L320.761 72.3599C319.36 70.8233 319.111 70.5069 318.885 70.2131H319.134C316.241 66.1907 316.241 66.1906 313.914 65.6935L312.761 67.5013C314.614 72.4277 314.614 72.4278 321.1 77.8965H320.58C319.172 77.723 317.745 77.7764 316.354 78.0547L315.45 79.5914V79.84C315.337 81.5122 315.179 83.7495 315.089 85.4444C314.995 85.7014 314.826 85.9246 314.605 86.0856C314.384 86.2466 314.119 86.338 313.846 86.3483C313.045 86.8419 312.334 87.4686 311.744 88.2013C312.128 89.6476 312.671 91.5685 313.123 93.0148C312.354 93.8735 312.354 93.8735 305.394 97.9412C304.761 98.7773 304.761 98.7773 304.739 98.7773C303.586 99.5583 302.36 100.224 301.078 100.766C301.078 101.421 301.078 102.28 301.078 103.026C312.061 106.28 314.637 107.048 315.541 118.619C310.004 123.138 303.405 119.794 297.462 121.059C295.428 124.223 296.626 143.273 305.078 150.301C310.275 149.443 310.275 149.443 314.501 154.821L315.948 153.081C316.083 152.697 316.196 152.674 316.309 152.674C316.422 151.974 316.603 151.07 316.738 150.414L317.416 149.962C319.287 150.281 321.209 149.942 322.857 149.003C324.506 148.063 325.777 146.582 326.456 144.81C326.772 143.77 326.704 143.793 326.636 143.793C327.224 142.663 327.947 141.149 328.467 139.997C327.631 138.641 327.857 138.618 328.083 138.573C326.298 136.11 326.185 135.952 327.518 131.997C327.789 131.161 327.721 131.183 327.676 131.183L328.06 130.076C329.128 129.037 330.366 128.188 331.721 127.568C331.721 126.98 331.924 126.212 331.992 125.624H332.331C331.201 120.042 331.201 120.042 331.721 118.438C337.077 119.455 337.077 119.455 338.794 119.116C339.201 118.506 339.743 117.692 340.082 117.037C340.619 115.757 341.456 114.625 342.523 113.737C348.286 115.545 348.286 115.545 370.816 136.629C371.72 135.703 371.63 135.726 371.539 135.748C370.929 134.55 370.116 132.991 369.46 131.816C369.189 131.115 369.302 131.093 369.46 131.07C368.356 129.475 367.431 127.762 366.703 125.963L368.579 125.014C368.604 124.875 368.642 124.739 368.692 124.607L368.94 124.246C367.946 123.681 367.743 123.726 367.562 123.771C365.739 122.39 363.812 121.151 361.799 120.065L362.455 119.907L362.071 119.703C359.672 118.615 357.472 117.133 355.562 115.319C355.235 114.933 354.88 114.57 354.5 114.235H354.048C352.821 113.15 351.531 112.138 350.184 111.206C349.19 110.325 349.348 110.302 349.529 110.257C348.526 109.236 347.66 108.089 346.952 106.845C348.512 106.642 362.635 105.964 381.98 143.319L383.223 141.578C383.403 140.449 383.426 140.449 383.449 140.449C383.697 138.189 383.878 135.771 384.217 133.466C384.014 132.245 383.923 132.268 383.855 132.291L383.539 131.183C382.844 129.974 382.018 128.844 381.076 127.816L381.483 127.681C380.533 126.867 379.223 125.782 378.341 124.946C378.545 123.861 378.816 122.415 378.952 121.33V120.517L381.053 120.268C387.968 132.494 387.968 132.494 394.115 136.449L395.742 135.183C398.002 135.545 399.109 135.703 400.262 132.268C404.601 136.019 407.041 150.347 407.9 155.748C407.538 156.29 407.019 156.991 406.634 157.51L405.369 155.861C402.386 157.149 402.386 157.149 401.301 167.544H401.053L400.623 167.702L400.465 167.386C400.438 165.921 400.514 164.456 400.691 163.002C400.827 162.143 400.827 162.12 400.849 162.12C401.324 157.262 401.324 157.262 399.923 155.341C397.749 155.958 395.513 156.33 393.256 156.448L392.578 156.652C391.335 155.979 390.052 155.383 388.737 154.866C387.833 158.934 388.578 163.069 388.194 167.16L386.567 168.403L384.533 167.386C384.33 167.069 384.533 167.002 384.804 166.956C381.55 165.013 378.025 163.431 374.952 161.397C374.57 161.331 374.18 161.331 373.799 161.397C367.63 159.137 367.63 159.137 365.777 157.781L366.455 157.646C361.935 154.414 361.935 154.414 361.189 153.375C362.042 151.916 362.985 150.512 364.014 149.172C363.517 148.019 362.884 146.505 362.41 145.375H362.862L362.432 144.652C352.986 131.477 330.117 150.663 329.913 150.866L329.778 150.979C323.744 156.335 316.038 159.205 309.778 164.267L308.919 165.058C307.722 166.753 305.236 170.301 306.117 179.657C306.445 181.609 306.445 183.602 306.117 185.555C305.801 186.798 303.857 187.679 302.931 188.425C298.411 191.724 298.411 191.724 288.626 217.802C284.106 230.051 294.502 243.339 286.027 255.293L285.666 255.632L285.485 255.745C287.225 260.897 285.485 266.773 288.739 271.564C292.875 277.756 301.778 278.863 304.558 286.479C309.801 300.715 315.202 302.478 316.738 302.659L318.162 301.032H317.778L318.162 299.97C318.727 299.314 319.292 298.117 320.083 297.71C325.439 295.134 331.653 297.71 336.987 294.885C341.868 292.286 343.404 285.462 349.8 284.806C351.043 284.671 351.043 284.671 358.116 295.767C360.873 295.45 361.28 295.382 365.46 290.727C368.986 293.8 369.099 294.185 368.895 296.354C368.172 303.857 361.777 308.919 360.353 316.128C359.088 322.658 362.364 328.986 361.234 335.494C360.805 337.957 354.975 351.471 354.93 351.562C332.851 392.035 312.264 403.854 299.971 410.905C305.157 409.431 310.172 407.408 314.931 404.871L319.134 402.611L319.812 402.25C322.365 400.803 323.631 399.99 326.908 398.091C328.151 397.323 329.8 396.306 331.021 395.515L331.721 395.086C334.817 393.052 335.043 392.826 337.167 391.357C337.823 390.837 337.777 390.86 337.732 390.883L341.19 388.148H341.325C343.585 386.431 345.981 384.917 348.263 383.267L349.235 382.499L352.783 379.425C354.003 378.318 355.608 376.849 356.783 375.719C357.958 374.589 357.687 374.815 357.641 374.838L358.071 374.386L359.833 372.736L361.37 371.335C363.811 369.075 364.059 368.804 366.477 366.499L367.404 365.573C368.443 364.601 369.799 363.313 370.816 362.273L371.788 361.324C373.641 359.471 373.912 359.177 376.443 356.465L377.731 354.997C378.658 353.934 379.991 352.488 380.805 351.403C380.955 351.202 381.122 351.014 381.302 350.839L381.935 350.048C382.816 348.895 384.014 347.358 384.872 346.206C385.731 345.053 385.754 344.986 385.731 345.008L388.601 340.986C390.861 337.709 390.861 337.709 392.42 335.359C392.691 334.884 392.646 334.907 392.601 334.952C393.211 333.822 394.002 332.308 394.635 331.201H394.77L397.437 326.387C398.137 325.054 398.092 325.076 398.047 325.122C398.612 323.992 399.38 322.5 399.991 321.393C400.097 321.165 400.234 320.952 400.397 320.76L403.719 314.568C404.081 313.868 404.058 313.89 404.036 313.913C404.826 312.602 405.843 310.84 406.589 309.506C406.721 309.239 406.872 308.983 407.041 308.738C408.239 306.478 408.533 305.936 410.047 302.862C410.883 301.122 410.883 301.145 410.86 301.167L410.996 300.851C411.606 299.608 412.397 297.936 412.985 296.693C413.323 295.925 413.346 295.902 413.369 295.902C414.928 292.399 415.312 291.495 416.849 287.835C417.391 286.592 418.092 284.942 418.634 283.722C419.335 281.869 419.335 281.869 419.357 281.846C420.487 278.66 420.871 277.53 422.001 273.711L422.114 273.349L423.267 269.191C423.327 268.899 423.41 268.612 423.515 268.332C424.442 264.716 424.69 263.813 425.504 260.106C425.798 258.796 426.159 257.033 426.431 255.722C426.702 254.412 426.656 254.525 426.656 254.502C427.289 251.09 427.47 249.982 427.877 247.316C427.906 247.035 427.952 246.756 428.012 246.48C428.193 245.237 428.419 243.61 428.577 242.367C428.602 241.903 428.662 241.442 428.758 240.988C428.894 239.7 429.097 237.983 429.233 236.672C428.397 240.921 428.306 241.305 427.854 243.452V243.655C427.477 245.252 427.017 246.829 426.476 248.378C426.317 247.768 426.137 246.977 426.001 246.367C425.866 245.756 426.137 245.621 426.159 245.598C426.497 243.353 426.7 241.089 426.769 238.819C426.769 237.915 426.769 237.96 426.769 237.983C426.769 236.536 426.769 234.593 426.634 233.147L426.769 233.011C426.589 230.751 426.114 228.333 425.798 226.006L425.617 226.141C425.436 224.469 425.368 222.774 425.12 221.124L425.278 220.989V220.763C425.025 218.429 424.432 216.145 423.515 213.983L423.267 214.142C422.815 213.012 422.318 211.475 421.979 210.322C421.64 209.17 421.979 209.305 421.979 209.283C421.64 206.481 421.64 206.481 421.255 202.503C421.075 201.373 421.029 201.419 420.984 201.441L420.532 197.419C420.397 196.085 420.532 196.063 420.532 196.04C420.255 193.783 419.786 191.552 419.131 189.374C418.77 188.447 418.702 188.493 418.634 188.515L417.12 183.611L417.346 183.498C416.804 181.803 416.058 179.589 415.493 177.917C414.928 176.244 414.725 176.244 414.634 176.289C414.182 175.024 413.527 173.374 413.007 172.154C412.826 171.453 413.007 171.408 413.007 171.363L412.645 170.527L413.708 168.651C413.843 168.855 427.696 191.114 427.267 235.022C429.074 232.65 430.476 229.26 430.408 209.531C429.73 199.385 428.374 185.871 426.905 175.815V176.289C427.041 176.99 427.199 177.939 427.312 178.662V179.272C426.905 177.013 426.769 176.176 426.34 174.369V174.233V174.007C425.097 169.284 425.097 169.284 424.6 167.228C424.193 165.872 423.628 164.064 423.154 162.708C423.164 162.663 423.164 162.617 423.154 162.572C421.798 158.798 421.798 158.798 421.097 156.629C420.803 155.635 420.781 155.657 420.781 155.68C420.397 154.234 419.922 152.29 419.606 150.821C421.689 155.828 423.455 160.96 424.894 166.188C422.815 158.572 419.922 148.403 417.369 140.923C408.849 120.178 408.849 120.178 403.222 110.076C391.923 91.5233 391.674 91.1617 384.533 82.032C370.567 65.6031 370.296 65.3093 361.709 57.1739C345.89 43.615 345.257 43.0048 335.111 36.1349C318.93 26.0787 317.258 25.0392 304.874 19.2088L295.699 15.2541L295.18 15.0507L290.299 13.1751L285.643 11.5254L285.146 11.7514ZM283.903 11.2994L281.395 10.4633C288.581 12.9039 288.581 12.9039 290.954 13.8304L286.57 12.226L286.073 12.0452L283.994 11.322L283.903 11.2994Z" fill="#00EDA3"/>
<path d="M268.943 7.36733C271.451 8.00008 273.327 8.51987 275.722 9.19782C277.259 9.67238 277.462 9.76276 277.711 9.85315C277.599 9.83001 277.483 9.83001 277.372 9.85315C281.455 11.9017 285.694 13.6245 290.049 15.0056C291.608 15.5705 293.213 16.0451 294.772 16.6326C296.488 17.2312 298.145 17.9877 299.721 18.8925C295.718 18.3808 291.843 17.14 288.287 15.2316L288.038 15.1186C286.117 14.2372 284.4 13.5141 282.818 12.8587C278.705 11.1639 274.366 10.1017 270.321 8.18087H270.75C270.042 7.81329 269.279 7.56152 268.491 7.43512C267.894 7.30217 267.306 7.13622 266.728 6.93799C267.155 6.96684 267.579 7.03492 267.993 7.14136L269.101 7.41253L268.943 7.36733Z" fill="#00EDA3"/>
<path d="M126.822 56.8808C126.459 57.2931 126.001 57.611 125.488 57.8073L125.082 58.0333C124.2 58.3497 124.02 57.7847 124.246 57.2424C124.543 56.7592 124.949 56.3522 125.432 56.054C125.914 55.7558 126.46 55.5746 127.025 55.5249C127.794 55.7283 127.025 56.6774 126.822 56.8808Z" fill="#00EDA3"/>
<path d="M123.997 54.2362C123.794 54.4622 123.794 54.4622 123.139 54.8012C122.077 55.4566 121.512 54.8012 121.692 54.1685C121.873 53.5357 121.692 53.7843 123.139 53.0611C123.46 52.845 123.837 52.7272 124.223 52.7222C124.924 52.8804 124.404 53.8069 123.997 54.2362Z" fill="#00EDA3"/>
<path d="M150.482 21.2431C149.443 21.7629 148.855 21.7403 148.946 21.4013C149.149 20.7008 152.313 19.4127 152.968 19.5031C153.194 19.5031 152.968 19.8646 152.155 20.3618H151.974C151.504 20.7055 151.005 21.008 150.482 21.2657V21.2431Z" fill="#00EDA3"/>
<path d="M151.951 18.7569C151.68 18.8925 150.911 19.2089 149.555 19.7512C147.296 20.5874 147.296 20.5874 146.346 20.5422C146.346 20.4292 146.346 20.4066 147.318 19.932C148.29 19.4575 148.719 19.1863 148.765 18.9829C148.51 18.8766 148.238 18.8219 147.962 18.8219C147.687 18.8219 147.414 18.8766 147.16 18.9829C146.527 19.2089 146.256 19.3218 144.539 20.045C143.809 20.3951 143.053 20.6897 142.279 20.9263C145.214 19.4359 148.232 18.1155 151.318 16.9716H151.476C152.199 16.7456 152.199 16.7456 154.753 17.288C153.967 17.9201 153.092 18.4305 152.154 18.8021L151.951 18.7569Z" fill="#00EDA3"/>
<path d="M139.613 25.5139C138.168 26.3844 136.657 27.14 135.094 27.7737C134.461 28.0449 133.806 28.2483 133.173 28.5195L132.789 28.6777C132.575 28.7723 132.345 28.8259 132.111 28.8359C132.111 28.6777 132.111 28.2709 136.834 25.4461C137.128 25.2879 137.15 25.2202 137.173 25.1524C136.608 24.9038 136.088 25.5817 135.523 25.1524C136.867 24.0524 138.398 23.2028 140.043 22.644C140.324 22.5266 140.621 22.4504 140.924 22.418C141.218 22.418 141.173 22.87 141.512 22.8248C143.071 22.5536 143.071 22.5536 143.365 22.5988C143.658 22.644 143.365 22.9377 143.365 23.0281C143.365 23.1185 142.551 23.6383 139.636 25.401L139.613 25.5139Z" fill="#00EDA3"/>
<path d="M108.359 276.378C108.832 276.223 109.331 276.162 109.827 276.197C110.335 276.226 110.833 276.349 111.296 276.559L108.359 276.378Z" fill="#00EDA3"/>
<path d="M373.798 359.72L370.883 362.974C371.877 361.912 374.86 358.726 377.888 355.246L373.911 359.765L373.798 359.72Z" fill="#00EDA3"/>
<path d="M218.683 8.29405L219.045 8.63305C219.723 9.33359 219.723 9.33359 220.559 12.7911C220.717 13.5143 220.785 13.7854 220.921 14.6894V14.825C220.983 15.8581 221.336 16.8527 221.938 17.6949H221.734L222.096 18.2373C222.661 18.9379 223.587 19.1412 224.355 19.7288C224.317 20.9302 224.59 22.1211 225.146 23.1863H224.988C225.282 23.9546 225.395 24.2032 226.028 25.6043H226.254C226.254 25.8303 226.457 26.0563 226.57 26.2823V26.4179C226.638 26.6388 226.638 26.875 226.57 27.0958C224.943 27.5026 223.813 25.2428 222.05 26.2371C222.05 26.6439 221.847 27.367 223.18 29.6494H222.909L223.135 30.0562C223.587 30.7793 224.017 31.5477 224.446 32.316H224.762L225.033 32.7002C226.796 35.4572 224.875 36.5645 223.858 36.3159C222.841 36.0674 222.389 35.0278 222.163 34.0561C221.937 33.0844 221.689 32.1352 218.615 30.7793L218.344 31.0505C218.344 31.6381 218.48 31.7736 218.683 32.542H218.955C219.655 34.5306 221.779 35.1408 223 36.6097H222.638C223.723 37.8978 223.723 37.8978 223.7 38.2142L223.384 38.4176C222.706 38.7339 221.96 38.4175 221.282 38.6209C219.632 39.3667 218.48 40.8808 216.762 41.4683C215.28 41.8061 213.749 41.875 212.243 41.6717C211.714 41.5802 211.171 41.619 210.661 41.7847C210.079 42.6565 209.608 43.5979 209.26 44.5869H209.079C208.898 45.0388 208.717 45.4682 208.559 45.8976C207.723 47.9766 207.723 47.9766 204.65 47.6377C202.593 47.4117 202.593 47.4117 200.288 49.1065C197.034 51.3664 197.034 51.3664 197.125 52.9031H196.876C197.102 56.1572 197.102 56.1572 193.983 56.4284C193.309 58.0908 192.875 59.841 192.695 61.626H192.356C192.006 63.0866 191.149 64.3757 189.938 65.2643C186.707 67.9309 186.481 65.9422 186.074 62.3491C184.515 62.1457 183.814 64.3378 182.119 63.7728C181.102 61.287 178.617 59.7277 177.961 56.9933C176.899 52.7675 177.713 52.2929 179.046 51.5246C174.052 49.2647 178.029 42.8694 179.566 41.3327C180.515 40.361 180.515 40.3384 180.447 39.8864C179.962 39.6537 179.424 39.5524 178.888 39.5927C177.69 37.5136 182.549 33.1069 183.656 33.4233H184.831C184.831 33.6945 185.125 34.3499 183.34 37.0165H183.136L182.978 37.2876C182.802 37.5475 182.68 37.8392 182.616 38.1464C182.797 38.4402 183.068 38.6887 183.249 39.0051C185.509 38.1464 186.029 31.9997 184.56 31.4347C183.837 31.1635 183.792 31.2087 182.3 32.7002C180.696 34.2821 180.357 34.4177 179.792 34.6436C180.244 31.0279 184.56 29.1071 183.995 25.0394C183.633 22.305 183.091 22.2372 178.029 21.6948C178.019 21.5519 178.019 21.4084 178.029 21.2655C178.668 20.406 179.429 19.6447 180.289 19.0056L179.43 19.6384C179.204 19.8192 179.249 19.8192 179.294 19.8418C176.492 21.9208 175.747 22.4858 174.571 22.644C174.571 22.531 174.571 22.3728 174.571 22.2372C176.538 19.2542 176.537 19.2542 176.492 19.1412H176.176H176.04L175.747 18.983C175.929 18.5957 176.207 18.2616 176.556 18.0124C176.904 17.7632 177.31 17.6072 177.735 17.5594C183.453 16.2487 188.198 12.6781 193.554 10.6669H193.938C194.255 10.7799 194.481 10.8477 195.882 9.78555C197.497 8.61223 199.423 7.9438 201.418 7.86468C201.418 8.09066 201.418 8.36184 201.418 8.56522C201.87 8.56522 202.074 8.56523 203 7.97768C204.04 6.93972 205.175 6.00153 206.39 5.17548C206.236 5.40887 206.062 5.6282 205.87 5.83085C205.734 5.98904 205.531 6.19243 205.396 6.37322C206.345 5.85346 207.023 5.01732 207.904 4.42977L208.198 4.27156H208.356C208.763 3.97778 209.147 3.61623 209.531 3.29985C209.685 3.19878 209.81 3.05836 209.893 2.89307C209.88 3.00571 209.88 3.11938 209.893 3.23203C210.019 3.43551 210.132 3.64689 210.231 3.86481C209.915 4.67835 209.576 4.79131 209.215 4.85911L209.441 5.13031C209.802 5.13031 209.802 5.13031 210.435 4.18118L210.661 3.95519H210.977L212.333 5.60485C212.695 6.05682 212.695 6.05682 213.395 6.84776C214.051 7.52571 214.661 8.22625 215.294 8.9268H214.955C215.859 9.85333 216.107 10.0115 216.672 10.1245C216.763 9.99407 216.846 9.85825 216.921 9.71775C216.717 8.90422 216.243 8.20367 216.039 7.45793C216.83 7.09635 218.299 8.18107 218.593 8.40705L218.683 8.29405Z" fill="#00EDA3"/>
<path d="M76.0886 209.147C76.0196 209.498 75.8538 209.823 75.6099 210.085C75.366 210.347 75.0537 210.536 74.7083 210.63C74.3628 210.724 73.9979 210.72 73.6549 210.617C73.3118 210.515 73.0043 210.319 72.7668 210.051C72.5151 209.684 72.3638 209.257 72.3282 208.813C72.2925 208.369 72.3735 207.923 72.5633 207.52C72.6451 207.328 72.7599 207.152 72.9024 207C73.1965 206.755 73.5059 206.528 73.8288 206.322C74.0974 206.175 74.407 206.119 74.7102 206.164C75.2636 206.275 75.7554 206.59 76.0886 207.045L75.1169 206.933C75.4594 207.194 75.7287 207.539 75.8989 207.935C76.0691 208.331 76.1344 208.764 76.0886 209.192V209.147Z" fill="#00EDA3"/>
<path d="M102.213 242.209C102.054 243.791 101.738 243.7 101.557 243.655C101.241 244.062 101.241 244.062 101.151 244.039C101.06 244.017 100.563 243.542 100.156 242.954C99.2523 241.689 99.0715 241.712 98.1676 242.118C94.71 243.61 94.71 243.61 94.0094 243.406C92.2694 242.887 91.7497 241.011 90.1678 240.22C89.7722 240.038 89.3542 239.909 88.9248 239.836C87.3085 239.626 85.723 239.224 84.2018 238.638C89.5802 231.542 91.1169 231.587 94.8004 231.746C96.1059 231.968 97.3451 232.48 98.428 233.242C99.5109 234.004 100.41 234.999 101.06 236.152H100.269C101.331 237.796 101.846 239.735 101.738 241.689H102.235C102.235 241.847 102.235 242.073 102.235 242.231L102.213 242.209Z" fill="#00EDA3"/>
<path d="M76.8797 244.062C76.8797 245.711 76.3598 246.095 75.0717 247.09C72.8119 247.949 72.0888 243.113 72.9701 241.259C73.1735 240.808 73.1736 240.807 74.3487 239.949H74.7102C76.1565 240.22 76.97 242.525 76.97 244.084L76.8797 244.062Z" fill="#00EDA3"/>
</g>
<defs>
<radialGradient id="paint0_radial_3_373" cx="0" cy="0" r="1" gradientUnits="userSpaceOnUse" gradientTransform="translate(214.414 165.193) scale(264.4)">
<stop stop-color="#FDFDFD"/>
<stop offset="0.8" stop-color="#C5ECE0"/>
<stop offset="1" stop-color="#B7E0D3"/>
</radialGradient>
</defs>
</svg>
