<svg width="922" height="323" viewBox="0 0 922 323" fill="none" xmlns="http://www.w3.org/2000/svg">
<path d="M5.49938 180.922C2.69969 180.922 0.666591 153.24 0 139.399V323H920.896C921.729 224.112 922.896 26.8366 920.896 28.8377C918.396 31.3391 916.396 56.8531 912.397 56.8531C910.397 56.8531 907.397 52.8509 905.398 49.349C903.398 45.8471 901.398 46.3474 899.898 49.349C898.398 52.3507 895.399 53.8515 892.899 53.8515C890.399 53.8515 887.4 49.8493 885.9 49.8493C884.4 49.8493 881.9 55.8526 879.9 55.8526C877.901 55.8526 877.401 47.8482 874.901 47.8482C872.401 47.8482 871.901 61.3556 869.402 61.3556C866.902 61.3556 866.402 47.8482 863.902 47.8482C861.403 47.8482 859.903 71.8614 858.903 81.3667C857.903 90.8719 854.403 119.388 854.403 127.392C854.403 135.396 849.904 146.403 847.404 151.405C844.904 156.408 842.405 172.417 837.905 172.417C833.406 172.417 834.406 156.408 830.906 156.408C827.406 156.408 829.406 173.918 825.907 173.918C822.407 173.918 820.907 125.391 820.907 116.886C820.907 108.382 818.407 106.881 814.908 106.881C811.408 106.881 810.908 76.8642 808.409 77.3645C805.986 77.8492 805.442 78.8038 803.591 82.049L803.409 82.3672C801.409 85.8692 801.409 97.3755 797.41 97.3755C795.41 91.8725 791.41 82.3672 787.911 82.3672C784.411 82.3672 783.411 99.8769 781.912 99.8769C780.412 99.8769 776.412 92.3727 775.412 94.3738C774.412 96.375 761.414 130.394 759.414 131.394C757.414 132.395 756.414 128.393 754.415 128.393C752.415 128.393 748.915 135.897 747.915 132.395C746.915 128.893 743.916 111.884 742.416 111.884C740.916 111.884 733.417 117.387 731.917 115.886C730.417 114.385 727.918 103.379 725.418 103.879C722.918 104.379 713.419 112.884 711.419 113.384C709.42 113.885 706.42 101.878 704.42 101.878C702.421 101.878 700.421 111.383 698.421 114.885C696.421 118.387 693.922 118.387 692.422 121.389C690.922 124.39 688.422 138.898 686.422 134.396C684.423 129.893 680.923 129.393 677.423 128.893C673.924 128.393 673.924 119.388 673.424 109.882C672.924 100.377 665.925 84.8686 662.925 75.8636C659.925 66.8587 650.926 26.8366 648.927 26.8366C646.927 26.8366 644.427 78.8653 642.927 84.8686C641.427 90.8719 636.928 87.8703 634.928 89.3711C632.928 90.8719 627.929 90.3716 626.429 91.3722C624.929 92.3727 616.43 92.3727 614.43 92.3727C612.431 92.3727 603.432 98.8763 601.932 97.3755C600.432 95.8747 593.933 81.867 592.433 83.3678C590.933 84.8686 585.934 83.3678 582.934 83.3678C579.934 83.3678 579.934 90.8719 578.435 93.8736C576.935 96.8752 571.935 79.3656 571.435 81.867C570.935 84.3683 568.436 105.88 566.936 102.378C565.436 98.8763 563.436 78.365 560.437 77.8647C557.437 77.3645 555.437 81.3667 553.437 89.3711C551.438 97.3755 548.438 104.379 545.938 113.885C543.439 123.39 542.439 152.406 541.439 162.912C540.439 173.417 538.939 178.42 536.439 179.921C533.94 181.422 530.94 177.92 530.44 175.919C529.94 173.918 528.44 171.416 524.441 172.917C520.441 174.418 515.442 185.424 514.942 187.925C514.442 190.427 511.942 195.43 510.942 192.428C509.942 188.426 507.943 174.918 504.943 174.918C501.943 174.918 498.444 181.422 495.944 181.922C493.444 182.422 491.944 186.425 490.445 186.425C488.945 186.425 486.445 184.924 484.945 183.923C483.445 182.923 480.446 190.927 478.446 190.927C476.446 190.927 467.447 181.922 464.447 179.421C461.448 176.919 458.448 180.421 456.448 184.924C454.449 189.426 453.449 203.434 452.449 205.435C451.449 207.436 447.949 208.937 445.45 207.436C442.95 205.935 439.45 198.431 437.95 192.928C436.451 187.425 434.451 184.424 433.951 188.426C433.451 192.428 430.951 261.966 429.451 263.467C427.952 264.968 424.452 264.968 423.452 263.467C422.452 261.966 420.952 253.462 419.952 242.456C418.953 231.449 415.453 224.446 412.953 219.943C410.454 215.441 408.454 202.934 408.454 196.93C408.454 190.927 405.954 190.427 403.454 191.928C400.955 193.428 395.455 198.431 394.455 194.929C393.455 191.427 390.456 189.426 387.456 187.925C384.457 186.425 383.957 179.921 380.457 179.921C376.957 179.921 372.958 187.425 371.458 189.927C369.958 192.428 367.458 192.928 364.959 190.927C362.459 188.926 358.959 174.418 357.46 174.418C355.96 174.418 354.96 176.419 352.96 178.921C350.96 181.422 347.461 181.422 345.961 183.423C344.461 185.424 342.961 194.929 340.961 194.929C338.962 194.929 338.962 183.423 335.462 183.423C327.963 183.423 327.963 189.927 325.463 189.927C322.963 189.927 320.464 165.413 318.964 165.413C317.464 165.413 314.964 172.917 313.964 172.917C312.965 172.917 309.965 164.412 308.465 164.412C306.965 164.412 305.465 175.419 302.466 176.419C299.466 177.42 297.966 176.419 294.967 172.417C291.967 168.415 286.968 168.415 285.468 171.416C283.968 174.418 276.969 205.935 274.969 205.935C272.969 205.935 266.47 183.423 264.97 175.419C263.47 167.414 259.971 86.3694 258.471 86.3694C256.971 86.3694 255.471 95.8747 253.471 95.8747C251.472 95.8747 250.472 91.8725 249.972 85.3689C249.472 78.8653 239.973 63.857 237.973 61.8559C235.973 59.8548 229.974 62.8565 228.974 58.8543C227.974 54.852 221.475 46.8476 219.975 48.3485C218.475 49.8493 214.476 66.8587 210.976 69.8603C207.477 72.862 203.477 62.8565 200.977 58.8543C198.478 54.852 193.978 62.3562 191.978 60.8554C189.979 59.3545 187.979 44.3462 186.979 45.3468C185.979 46.3474 184.479 52.8509 182.979 58.8543C181.479 64.8576 176.98 58.8543 175.98 59.8548C174.98 60.8554 172.48 72.3617 170.481 72.3617C168.481 72.3617 165.481 60.8554 162.482 59.8548C159.482 58.8543 155.982 52.3507 154.483 51.3501C152.983 50.3496 151.983 54.3518 150.983 58.8543C148.983 68.8598 144.984 76.8642 142.484 74.8631C139.984 72.862 138.484 57.3534 137.984 54.3518C137.484 51.3501 131.985 46.3474 130.485 40.8443C128.985 35.3413 127.986 23.8349 124.986 27.8371C117.987 40.344 113.987 90.3716 109.988 90.3716C105.988 90.3716 105.488 21.8338 102.488 21.8338C99.4887 21.8338 97.9889 21.8338 95.9891 17.8316C93.9894 13.8294 89.4899 14.83 87.99 15.3302C86.4902 15.8305 84.9904 20.333 83.4906 22.8344C81.9907 25.3358 78.9911 24.3352 76.4913 21.8338C73.9916 19.3324 69.9921 3.32365 67.4924 0.822267C64.9926 -1.67911 59.9932 1.82282 59.9932 7.32586C59.9932 12.8289 57.9934 88.8708 54.4938 90.3716C50.9942 91.8725 46.4947 77.8647 43.995 79.8658C41.4953 81.8669 39.9955 100.377 38.4956 109.382C36.9958 118.387 33.4962 150.905 29.4967 152.406C25.4971 153.907 24.4972 144.902 22.4975 141.9C20.4977 138.898 16.4981 153.406 12.9985 160.41C9.49893 167.414 8.99898 180.922 5.49938 180.922Z" fill="url(#paint0_linear_13_379)"/>
<defs>
<linearGradient id="paint0_linear_13_379" x1="461" y1="0" x2="461" y2="323" gradientUnits="userSpaceOnUse">
<stop stop-color="#00FFB2" stop-opacity="0.39"/>
<stop offset="1" stop-color="#00FFB2" stop-opacity="0"/>
</linearGradient>
</defs>
</svg>
