<svg width="70" height="70" viewBox="0 0 70 70" fill="none" xmlns="http://www.w3.org/2000/svg">
<path d="M27.3846 27.3846C31.3101 27.3846 34.4923 24.4297 34.4923 20.7846C34.4923 17.1395 31.3101 14.1846 27.3846 14.1846C23.4591 14.1846 20.2769 17.1395 20.2769 20.7846C20.2769 24.4297 23.4591 27.3846 27.3846 27.3846Z" stroke="#00FFB2" stroke-width="3" stroke-linecap="round" stroke-linejoin="round"/>
<path d="M16.2154 39.5692C16.2154 37.9687 16.5044 36.3839 17.0659 34.9053C17.6274 33.4266 18.4503 32.0832 19.4877 30.9517C20.5251 29.8202 21.7567 28.9228 23.112 28.3107C24.4674 27.6987 25.92 27.384 27.3869 27.3846C30.3485 27.3846 33.1889 28.6683 35.2832 30.9534C37.3774 33.2384 38.5539 36.3377 38.5539 39.5692" stroke="#00FFB2" stroke-width="3" stroke-linecap="round" stroke-linejoin="round"/>
<path d="M27.8923 54.8C42.1922 54.8 53.7846 42.9803 53.7846 28.4C53.7846 13.8197 42.1922 2 27.8923 2C13.5924 2 2 13.8197 2 28.4C2 42.9803 13.5924 54.8 27.8923 54.8Z" stroke="#00FFB2" stroke-width="3" stroke-linecap="round" stroke-linejoin="round"/>
<path d="M48.5664 44.6461L66.9752 62.288C67.3 62.5982 67.5578 62.9667 67.7336 63.3726C67.9095 63.7784 68 64.2135 68 64.653C68 65.0924 67.9095 65.5275 67.7336 65.9334C67.5578 66.3392 67.3 66.7078 66.9752 67.018C66.6515 67.3293 66.267 67.5762 65.8435 67.7447C65.42 67.9132 64.9659 68 64.5074 68C64.0488 68 63.5949 67.9132 63.1714 67.7447C62.7479 67.5762 62.3633 67.3293 62.0396 67.018L43.6307 49.3718" stroke="#00FFB2" stroke-width="3" stroke-linecap="round" stroke-linejoin="round"/>
</svg>
