<svg width="69" height="69" viewBox="0 0 69 69" fill="none" xmlns="http://www.w3.org/2000/svg">
<path d="M27.0552 54.0811L14.8267 41.8526C14.5565 41.584 14.3552 41.2541 14.2399 40.8911C14.1246 40.528 14.0988 40.1424 14.1646 39.7672C14.3254 38.8215 14.5192 37.9277 14.7368 37.0151C16.1846 30.9629 18.8614 25.2731 22.6007 20.2989C23.9008 18.5636 25.323 16.9233 26.8566 15.3905C31.7703 10.4679 37.7445 6.73408 44.3225 4.47447C50.9005 2.21487 57.9082 1.48935 64.8096 2.35335C65.2527 2.40956 65.6646 2.61143 65.9805 2.9273C66.2963 3.24316 66.4983 3.65508 66.5545 4.09823C67.4164 10.9999 66.6894 18.0074 64.4291 24.5852C62.1687 31.163 58.4348 37.1371 53.5125 42.0512C51.9762 43.5846 50.3328 45.0068 48.5947 46.3071C43.6225 50.0458 37.934 52.721 31.8832 54.1663C30.9753 54.3838 30.058 54.5729 29.1406 54.7337C28.7662 54.8007 28.3811 54.7764 28.018 54.6628C27.655 54.5492 27.3247 54.3496 27.0552 54.0811Z" stroke="#00FFB2" stroke-width="3" stroke-linecap="round" stroke-linejoin="round"/>
<path d="M14.7343 37.0148L4.27912 35.2227C4.04144 35.1806 3.81802 35.0797 3.62927 34.9293C3.44051 34.7789 3.29242 34.5836 3.19842 34.3613C3.10441 34.139 3.06748 33.8967 3.09105 33.6564C3.11462 33.4162 3.19796 33.1857 3.33337 32.9859L10.4737 22.4124C10.7571 22.0031 11.1293 21.6629 11.5624 21.4173C11.9955 21.1716 12.4784 21.0269 12.9752 20.9938L22.603 20.3224" stroke="#00FFB2" stroke-width="3" stroke-linecap="round" stroke-linejoin="round"/>
<path d="M48.6027 46.2881L47.9313 55.9158C47.8982 56.4127 47.7534 56.8956 47.5078 57.3288C47.2622 57.7619 46.922 58.134 46.5126 58.4174L35.9391 65.5578C35.7393 65.6932 35.5088 65.7765 35.2686 65.8C35.0284 65.8236 34.7861 65.7867 34.5638 65.6927C34.3414 65.5987 34.1462 65.4506 33.9958 65.2619C33.8453 65.0731 33.7444 64.8497 33.7024 64.612L31.9102 54.1615" stroke="#00FFB2" stroke-width="3" stroke-linecap="round" stroke-linejoin="round"/>
<path d="M10.4896 46.3639L2.13391 54.7196" stroke="#00FFB2" stroke-width="3" stroke-linecap="round" stroke-linejoin="round"/>
<path d="M22.6348 58.5119L14.2791 66.8676" stroke="#00FFB2" stroke-width="3" stroke-linecap="round" stroke-linejoin="round"/>
<path d="M16.5638 52.4353L1.99927 66.9998" stroke="#00FFB2" stroke-width="3" stroke-linecap="round" stroke-linejoin="round"/>
<path d="M17.1028 29.8273L38.9922 51.7214" stroke="#00FFB2" stroke-width="3" stroke-linecap="round" stroke-linejoin="round"/>
<path d="M47.4363 29.3734C51.7872 29.3734 55.3144 25.8462 55.3144 21.4953C55.3144 17.1443 51.7872 13.6172 47.4363 13.6172C43.0853 13.6172 39.5582 17.1443 39.5582 21.4953C39.5582 25.8462 43.0853 29.3734 47.4363 29.3734Z" stroke="#00FFB2" stroke-width="3" stroke-linecap="round" stroke-linejoin="round"/>
</svg>
