<svg width="98" height="70" viewBox="0 0 98 70" fill="none" xmlns="http://www.w3.org/2000/svg">
<path d="M59.717 68.0264C59.3823 68.2656 58.9808 68.3943 58.5689 68.3943C58.157 68.3943 57.7555 68.2656 57.4208 68.0264C51.0943 63.4977 20.7305 40.7794 20.7305 21.6191C20.7305 16.4158 22.8044 11.4256 26.4963 7.74634C30.1881 4.06705 35.1954 2 40.4165 2C44.094 2.00116 47.6975 3.02861 50.8192 4.96596C53.9409 6.90331 56.456 9.67316 58.0793 12.9617C58.1237 13.0505 58.192 13.1252 58.2766 13.1774C58.3612 13.2296 58.4587 13.2572 58.5582 13.2572C58.6577 13.2572 58.7553 13.2296 58.8399 13.1774C58.9245 13.1252 58.9929 13.0505 59.0372 12.9617C60.6606 9.67316 63.1756 6.90331 66.2973 4.96596C69.419 3.02861 73.0226 2.00116 76.7 2C81.9211 2 86.9284 4.06705 90.6202 7.74634C94.3121 11.4256 96.3861 16.4158 96.3861 21.6191C96.4128 40.7794 66.0435 63.4977 59.717 68.0264Z" stroke="#00FFB2" stroke-width="3" stroke-linecap="round" stroke-linejoin="round"/>
<path d="M73.805 42.4332C78.1415 42.4332 81.657 38.9297 81.657 34.6079C81.657 30.2862 78.1415 26.7827 73.805 26.7827C69.4685 26.7827 65.9531 30.2862 65.9531 34.6079C65.9531 38.9297 69.4685 42.4332 73.805 42.4332Z" stroke="#00FFB2" stroke-width="3" stroke-linecap="round" stroke-linejoin="round"/>
<path d="M65.95 34.6292H62.0856C61.8262 34.6288 61.5711 34.6961 61.3458 34.8243C61.1204 34.9525 60.9326 35.1371 60.801 35.36L57.1882 41.441C57.0499 41.684 56.8455 41.8831 56.5987 42.0155C56.3518 42.1478 56.0725 42.2079 55.7928 42.189C55.5132 42.17 55.2445 42.0728 55.0179 41.9083C54.7913 41.7439 54.6159 41.519 54.512 41.2596L48.2872 26.58C48.1772 26.3238 47.9969 26.1036 47.767 25.9448C47.5372 25.7861 47.2671 25.695 46.9877 25.6822C46.7083 25.6694 46.4311 25.7354 46.1876 25.8724C45.9441 26.0095 45.7443 26.2122 45.6111 26.4573L41.7947 33.5357C41.6676 33.7718 41.4784 33.969 41.2474 34.1062C41.0164 34.2434 40.7523 34.3154 40.4834 34.3145H35.4416C34.9615 34.3154 34.4885 34.4305 34.062 34.6504C33.6356 34.8703 33.2681 35.1886 32.9901 35.5787L23.1097 49.4475C22.9738 49.6335 22.7965 49.7855 22.5917 49.8917C22.3869 49.9978 22.1602 50.0552 21.9295 50.0594C21.6987 50.0635 21.4701 50.0143 21.2616 49.9155C21.0531 49.8168 20.8704 49.6712 20.7279 49.4902L9.72342 35.44C9.58438 35.2624 9.40658 35.1187 9.20348 35.0198C9.00037 34.9209 8.77734 34.8694 8.55129 34.8692H2" stroke="#00FFB2" stroke-width="3" stroke-linecap="round" stroke-linejoin="round"/>
</svg>
