<svg width="63" height="70" viewBox="0 0 63 70" fill="none" xmlns="http://www.w3.org/2000/svg">
<path d="M53.9049 30.6288V24.4083C53.9084 21.4651 53.3302 18.5503 52.2036 15.8313C51.077 13.1124 49.4242 10.6429 47.3401 8.56479C45.2629 6.48064 42.7942 4.82773 40.0759 3.7011C37.3576 2.57448 34.4433 1.99636 31.5007 2.00002C25.5556 2.00002 19.8538 4.36171 15.65 8.56557C11.4461 12.7694 9.08447 18.4711 9.08447 24.4163V30.6367" stroke="#00FFB2" stroke-width="3" stroke-linecap="round" stroke-linejoin="round"/>
<path d="M60.5174 37.0615V49.3624C60.5174 50.113 60.2192 50.8328 59.6885 51.3636C59.1578 51.8943 58.4378 52.1925 57.6872 52.1925H52.3515C52.0596 52.1925 51.7795 52.0765 51.573 51.87C51.3666 51.6636 51.2507 51.3836 51.2507 51.0917V31.7296C51.2507 31.4377 51.3666 31.1577 51.573 30.9512C51.7795 30.7448 52.0596 30.6288 52.3515 30.6288H54.0807C54.9258 30.6283 55.7627 30.7943 56.5436 31.1173C57.3245 31.4404 58.0341 31.9141 58.6319 32.5115C59.2296 33.1089 59.7039 33.8182 60.0274 34.5989C60.3509 35.3796 60.5174 36.2164 60.5174 37.0615Z" stroke="#00FFB2" stroke-width="3" stroke-linecap="round" stroke-linejoin="round"/>
<path d="M9.09338 30.6288H10.6425C10.9345 30.6288 11.2144 30.7448 11.4208 30.9512C11.6273 31.1577 11.7433 31.4377 11.7433 31.7296V51.0917C11.7433 51.3836 11.6273 51.6636 11.4208 51.87C11.2144 52.0765 10.9345 52.1925 10.6425 52.1925H5.30664C4.93485 52.193 4.56664 52.1201 4.22305 51.9781C3.87945 51.8361 3.56721 51.6276 3.30431 51.3647C3.04141 51.1018 2.83302 50.7896 2.69098 50.446C2.54894 50.1024 2.47604 49.7342 2.47657 49.3624V37.0615C2.47657 35.3554 3.15429 33.7193 4.36065 32.5129C5.567 31.3066 7.20321 30.6288 8.90926 30.6288H9.09338Z" stroke="#00FFB2" stroke-width="3" stroke-linecap="round" stroke-linejoin="round"/>
<path d="M55.3646 52.1924C53.9111 54.931 51.7391 57.222 49.0818 58.8194C46.4244 60.4167 43.3821 61.2601 40.2816 61.2589C40.0655 61.2589 39.8455 61.2589 39.6333 61.2589" stroke="#00FFB2" stroke-width="3" stroke-linecap="round" stroke-linejoin="round"/>
<path d="M39.6496 61.2431C39.6496 63.0351 38.9378 64.7537 37.6706 66.0209C36.4034 67.2881 34.6848 68 32.8927 68C32.0056 68 31.127 67.8251 30.3075 67.4855C29.4879 67.1459 28.7433 66.6481 28.1162 66.0207C27.4891 65.3932 26.9918 64.6482 26.6527 63.8285C26.3135 63.0087 26.1393 62.1302 26.1398 61.2431C26.1377 60.3167 26.3268 59.3998 26.6953 58.5499C27.0638 57.7 27.6038 56.9352 28.2814 56.3035C29.5315 55.1334 31.1805 54.4835 32.8927 54.4862C33.7802 54.4856 34.659 54.6601 35.479 54.9994C36.299 55.3388 37.0442 55.8365 37.6718 56.464C38.2993 57.0916 38.7969 57.8367 39.1363 58.6567C39.4757 59.4767 39.6501 60.3556 39.6496 61.2431Z" stroke="#00FFB2" stroke-width="3" stroke-linecap="round" stroke-linejoin="round"/>
</svg>
