<svg width="1259" height="331" viewBox="0 0 1259 331" fill="none" xmlns="http://www.w3.org/2000/svg">
<g clip-path="url(#clip0_3_895)">
<path d="M1219.14 166.241H1122.9" stroke="#00FFB2" stroke-width="10" stroke-linecap="round" stroke-linejoin="round"/>
<path d="M4.6532 166.241H109.349C109.349 142.274 118.865 119.288 135.802 102.34C152.739 85.3929 175.711 75.8718 199.663 75.8718V36.5852" stroke="#00FFB2" stroke-width="10" stroke-linecap="round" stroke-linejoin="round"/>
<path d="M253.734 166.241H399.357C399.357 178.117 401.696 189.877 406.242 200.848C410.787 211.819 417.449 221.786 425.847 230.179C434.244 238.571 444.213 245.226 455.182 249.761C466.152 254.296 477.907 256.623 489.776 256.61V294.415" stroke="#00FFB2" stroke-width="10" stroke-linecap="round" stroke-linejoin="round"/>
<path d="M542.781 166.241H688.404C688.404 154.365 690.744 142.604 695.289 131.634C699.835 120.663 706.496 110.696 714.894 102.303C723.292 93.91 733.26 87.2555 744.23 82.7203C755.199 78.185 766.955 75.8579 778.824 75.8718V36.5852" stroke="#00FFB2" stroke-width="10" stroke-linecap="round" stroke-linejoin="round"/>
<path d="M832.896 166.241H978.519C978.518 178.153 980.872 189.947 985.444 200.946C990.015 211.945 996.715 221.931 1005.16 230.329C1013.6 238.727 1023.62 245.373 1034.64 249.883C1045.66 254.393 1057.46 256.679 1069.36 256.61V294.415" stroke="#00FFB2" stroke-width="10" stroke-linecap="round" stroke-linejoin="round"/>
<path d="M1123.76 166.241C1123.76 196.537 1099.21 221.094 1068.94 221.094C1038.66 221.094 1014.12 196.537 1014.12 166.241C1014.12 135.945 1038.66 111.387 1068.94 111.387C1099.21 111.387 1123.76 135.945 1123.76 166.241Z" fill="#0E1B35" stroke="white" stroke-width="5"/>
<path d="M833.641 166.241C833.641 196.537 809.096 221.094 778.822 221.094C748.548 221.094 724.004 196.537 724.004 166.241C724.004 135.945 748.548 111.387 778.822 111.387C809.096 111.387 833.641 135.945 833.641 166.241Z" fill="#0E1B35" stroke="white" stroke-width="5"/>
<path d="M489.775 221.094C475.236 221.094 461.293 215.316 451.013 205.029C440.732 194.742 434.956 180.79 434.956 166.241C434.956 159.037 436.374 151.904 439.129 145.249C441.884 138.593 445.922 132.547 451.013 127.453C456.103 122.359 462.146 118.319 468.797 115.562C475.448 112.806 482.576 111.387 489.775 111.387C496.973 111.387 504.102 112.806 510.752 115.562C517.403 118.319 523.446 122.359 528.537 127.453C533.627 132.547 537.665 138.594 540.42 145.249C543.175 151.904 544.593 159.037 544.593 166.241C544.593 180.79 538.817 194.742 528.537 205.029C518.256 215.316 504.313 221.094 489.775 221.094Z" fill="#0E1B35" stroke="white" stroke-width="5"/>
<path d="M254.482 166.241C254.482 196.537 229.937 221.094 199.663 221.094C169.389 221.094 144.845 196.537 144.845 166.241C144.845 135.945 169.389 111.387 199.663 111.387C229.937 111.387 254.482 135.945 254.482 166.241Z" fill="#0E1B35" stroke="white" stroke-width="5"/>
<path d="M198.803 174.115C200.728 171.91 201.883 169.005 201.883 165.75C201.883 158.61 196.178 153.045 189.178 153.045C182.143 153.045 176.438 158.61 176.438 165.75C176.438 172.925 182.143 178.49 189.178 178.49C191.348 178.49 193.448 177.93 195.233 176.985L197.438 179.435C197.753 179.855 198.173 179.925 198.593 179.54L200.833 177.685C201.288 177.335 201.288 176.95 200.938 176.53L198.803 174.115ZM189.178 173.8C184.768 173.8 181.268 170.475 181.268 165.75C181.268 161.06 184.768 157.735 189.178 157.735C193.588 157.735 197.088 161.06 197.088 165.75C197.088 167.605 196.528 169.215 195.653 170.51L193.273 167.815C192.923 167.43 192.538 167.36 192.118 167.71L189.878 169.565C189.423 169.95 189.423 170.3 189.773 170.755L192.013 173.31C191.138 173.625 190.158 173.8 189.178 173.8ZM222.458 169.39H220.638V164.42C220.638 163.86 220.358 163.58 219.833 163.58H216.613C216.088 163.58 215.773 163.86 215.773 164.42V169.39H209.123L216.753 154.515C217.033 153.92 216.788 153.5 216.158 153.5H212.728C212.273 153.5 211.958 153.71 211.748 154.095L204.188 168.9C204.013 169.25 203.943 169.565 203.943 169.915V173.03C203.943 173.555 204.223 173.835 204.783 173.835H215.773V177.195C215.773 177.72 216.088 178 216.613 178H219.833C220.358 178 220.638 177.72 220.638 177.195V173.835H222.458C222.983 173.835 223.263 173.555 223.263 173.03V170.23C223.263 169.67 222.983 169.39 222.458 169.39Z" fill="#00FFB2"/>
<path d="M491.977 174.115C493.902 171.91 495.057 169.005 495.057 165.75C495.057 158.61 489.352 153.045 482.352 153.045C475.317 153.045 469.612 158.61 469.612 165.75C469.612 172.925 475.317 178.49 482.352 178.49C484.522 178.49 486.622 177.93 488.407 176.985L490.612 179.435C490.927 179.855 491.347 179.925 491.767 179.54L494.007 177.685C494.462 177.335 494.462 176.95 494.112 176.53L491.977 174.115ZM482.352 173.8C477.942 173.8 474.442 170.475 474.442 165.75C474.442 161.06 477.942 157.735 482.352 157.735C486.762 157.735 490.262 161.06 490.262 165.75C490.262 167.605 489.702 169.215 488.827 170.51L486.447 167.815C486.097 167.43 485.712 167.36 485.292 167.71L483.052 169.565C482.597 169.95 482.597 170.3 482.947 170.755L485.187 173.31C484.312 173.625 483.332 173.8 482.352 173.8ZM501.676 153.78L496.986 156.335C496.601 156.58 496.426 156.895 496.426 157.35V160.395C496.426 161.025 496.846 161.305 497.406 160.955L502.166 158.365V177.195C502.166 177.72 502.446 178 502.971 178H506.121C506.681 178 506.961 177.72 506.961 177.195V154.34C506.961 153.815 506.681 153.5 506.121 153.5H502.726C502.306 153.5 502.026 153.57 501.676 153.78Z" fill="#00FFB2"/>
<path d="M781.977 174.115C783.902 171.91 785.057 169.005 785.057 165.75C785.057 158.61 779.352 153.045 772.352 153.045C765.317 153.045 759.612 158.61 759.612 165.75C759.612 172.925 765.317 178.49 772.352 178.49C774.522 178.49 776.622 177.93 778.407 176.985L780.612 179.435C780.927 179.855 781.347 179.925 781.767 179.54L784.007 177.685C784.462 177.335 784.462 176.95 784.112 176.53L781.977 174.115ZM772.352 173.8C767.942 173.8 764.442 170.475 764.442 165.75C764.442 161.06 767.942 157.735 772.352 157.735C776.762 157.735 780.262 161.06 780.262 165.75C780.262 167.605 779.702 169.215 778.827 170.51L776.447 167.815C776.097 167.43 775.712 167.36 775.292 167.71L773.052 169.565C772.597 169.95 772.597 170.3 772.947 170.755L775.187 173.31C774.312 173.625 773.332 173.8 772.352 173.8ZM791.676 153.78L786.986 156.335C786.601 156.58 786.426 156.895 786.426 157.35V160.395C786.426 161.025 786.846 161.305 787.406 160.955L792.166 158.365V177.195C792.166 177.72 792.446 178 792.971 178H796.121C796.681 178 796.961 177.72 796.961 177.195V154.34C796.961 153.815 796.681 153.5 796.121 153.5H792.726C792.306 153.5 792.026 153.57 791.676 153.78Z" fill="#00FFB2"/>
<path d="M1069.55 174.115C1071.48 171.91 1072.63 169.005 1072.63 165.75C1072.63 158.61 1066.93 153.045 1059.93 153.045C1052.89 153.045 1047.19 158.61 1047.19 165.75C1047.19 172.925 1052.89 178.49 1059.93 178.49C1062.1 178.49 1064.2 177.93 1065.98 176.985L1068.19 179.435C1068.5 179.855 1068.92 179.925 1069.34 179.54L1071.58 177.685C1072.04 177.335 1072.04 176.95 1071.69 176.53L1069.55 174.115ZM1059.93 173.8C1055.52 173.8 1052.02 170.475 1052.02 165.75C1052.02 161.06 1055.52 157.735 1059.93 157.735C1064.34 157.735 1067.84 161.06 1067.84 165.75C1067.84 167.605 1067.28 169.215 1066.4 170.51L1064.02 167.815C1063.67 167.43 1063.29 167.36 1062.87 167.71L1060.63 169.565C1060.17 169.95 1060.17 170.3 1060.52 170.755L1062.76 173.31C1061.89 173.625 1060.91 173.8 1059.93 173.8ZM1075.23 178H1089.97C1090.49 178 1090.77 177.72 1090.77 177.195V174.22C1090.77 173.66 1090.49 173.38 1089.97 173.38H1081.6L1086.54 168.55C1088.64 166.485 1090.39 163.72 1090.39 160.92C1090.39 155.53 1086.4 153.045 1082.44 153.045C1078.59 153.045 1074.85 155.215 1074.43 160.15C1074.39 160.71 1074.71 161.025 1075.23 161.025H1078.42C1078.91 161.025 1079.19 160.745 1079.26 160.22C1079.54 158.505 1080.76 157.735 1082.55 157.735C1084.33 157.735 1085.59 158.855 1085.59 160.92C1085.59 162.635 1084.26 164.455 1082.72 166.03L1074.81 173.975C1074.53 174.29 1074.39 174.605 1074.39 175.025V177.195C1074.39 177.72 1074.71 178 1075.23 178Z" fill="#00FFB2"/>
<path d="M166.212 284H180.947C181.472 284 181.752 283.72 181.752 283.195V280.22C181.752 279.66 181.472 279.38 180.947 279.38H172.582L177.517 274.55C179.617 272.485 181.367 269.72 181.367 266.92C181.367 261.53 177.377 259.045 173.422 259.045C169.572 259.045 165.827 261.215 165.407 266.15C165.372 266.71 165.687 267.025 166.212 267.025H169.397C169.887 267.025 170.167 266.745 170.237 266.22C170.517 264.505 171.742 263.735 173.527 263.735C175.312 263.735 176.572 264.855 176.572 266.92C176.572 268.635 175.242 270.455 173.702 272.03L165.792 279.975C165.512 280.29 165.372 280.605 165.372 281.025V283.195C165.372 283.72 165.687 284 166.212 284ZM193.598 284.49C199.828 284.49 203.398 279.31 203.398 271.75C203.398 264.19 199.828 259.045 193.598 259.045C187.333 259.045 183.798 264.19 183.798 271.75C183.798 279.31 187.333 284.49 193.598 284.49ZM193.598 279.8C190.308 279.8 188.593 276.93 188.593 271.75C188.593 266.57 190.308 263.735 193.598 263.735C196.853 263.735 198.568 266.57 198.568 271.75C198.568 276.93 196.853 279.8 193.598 279.8ZM206.579 284H221.314C221.839 284 222.119 283.72 222.119 283.195V280.22C222.119 279.66 221.839 279.38 221.314 279.38H212.949L217.884 274.55C219.984 272.485 221.734 269.72 221.734 266.92C221.734 261.53 217.744 259.045 213.789 259.045C209.939 259.045 206.194 261.215 205.774 266.15C205.739 266.71 206.054 267.025 206.579 267.025H209.764C210.254 267.025 210.534 266.745 210.604 266.22C210.884 264.505 212.109 263.735 213.894 263.735C215.679 263.735 216.939 264.855 216.939 266.92C216.939 268.635 215.609 270.455 214.069 272.03L206.159 279.975C205.879 280.29 205.739 280.605 205.739 281.025V283.195C205.739 283.72 206.054 284 206.579 284ZM228.916 259.78L224.226 262.335C223.841 262.58 223.666 262.895 223.666 263.35V266.395C223.666 267.025 224.086 267.305 224.646 266.955L229.406 264.365V283.195C229.406 283.72 229.686 284 230.211 284H233.361C233.921 284 234.201 283.72 234.201 283.195V260.34C234.201 259.815 233.921 259.5 233.361 259.5H229.966C229.546 259.5 229.266 259.57 228.916 259.78Z" fill="white"/>
<path d="M453.115 73H467.85C468.375 73 468.655 72.72 468.655 72.195V69.22C468.655 68.66 468.375 68.38 467.85 68.38H459.485L464.42 63.55C466.52 61.485 468.27 58.72 468.27 55.92C468.27 50.53 464.28 48.045 460.325 48.045C456.475 48.045 452.73 50.215 452.31 55.15C452.275 55.71 452.59 56.025 453.115 56.025H456.3C456.79 56.025 457.07 55.745 457.14 55.22C457.42 53.505 458.645 52.735 460.43 52.735C462.215 52.735 463.475 53.855 463.475 55.92C463.475 57.635 462.145 59.455 460.605 61.03L452.695 68.975C452.415 69.29 452.275 69.605 452.275 70.025V72.195C452.275 72.72 452.59 73 453.115 73ZM480.5 73.49C486.73 73.49 490.3 68.31 490.3 60.75C490.3 53.19 486.73 48.045 480.5 48.045C474.235 48.045 470.7 53.19 470.7 60.75C470.7 68.31 474.235 73.49 480.5 73.49ZM480.5 68.8C477.21 68.8 475.495 65.93 475.495 60.75C475.495 55.57 477.21 52.735 480.5 52.735C483.755 52.735 485.47 55.57 485.47 60.75C485.47 65.93 483.755 68.8 480.5 68.8ZM493.481 73H508.216C508.741 73 509.021 72.72 509.021 72.195V69.22C509.021 68.66 508.741 68.38 508.216 68.38H499.851L504.786 63.55C506.886 61.485 508.636 58.72 508.636 55.92C508.636 50.53 504.646 48.045 500.691 48.045C496.841 48.045 493.096 50.215 492.676 55.15C492.641 55.71 492.956 56.025 493.481 56.025H496.666C497.156 56.025 497.436 55.745 497.506 55.22C497.786 53.505 499.011 52.735 500.796 52.735C502.581 52.735 503.841 53.855 503.841 55.92C503.841 57.635 502.511 59.455 500.971 61.03L493.061 68.975C492.781 69.29 492.641 69.605 492.641 70.025V72.195C492.641 72.72 492.956 73 493.481 73ZM512.143 73H526.878C527.403 73 527.683 72.72 527.683 72.195V69.22C527.683 68.66 527.403 68.38 526.878 68.38H518.513L523.448 63.55C525.548 61.485 527.298 58.72 527.298 55.92C527.298 50.53 523.308 48.045 519.353 48.045C515.503 48.045 511.758 50.215 511.338 55.15C511.303 55.71 511.618 56.025 512.143 56.025H515.328C515.818 56.025 516.098 55.745 516.168 55.22C516.448 53.505 517.673 52.735 519.458 52.735C521.243 52.735 522.503 53.855 522.503 55.92C522.503 57.635 521.173 59.455 519.633 61.03L511.723 68.975C511.443 69.29 511.303 69.605 511.303 70.025V72.195C511.303 72.72 511.618 73 512.143 73Z" fill="white"/>
<path d="M1032.11 73H1046.85C1047.37 73 1047.65 72.72 1047.65 72.195V69.22C1047.65 68.66 1047.37 68.38 1046.85 68.38H1038.48L1043.42 63.55C1045.52 61.485 1047.27 58.72 1047.27 55.92C1047.27 50.53 1043.28 48.045 1039.32 48.045C1035.47 48.045 1031.73 50.215 1031.31 55.15C1031.27 55.71 1031.59 56.025 1032.11 56.025H1035.3C1035.79 56.025 1036.07 55.745 1036.14 55.22C1036.42 53.505 1037.64 52.735 1039.43 52.735C1041.21 52.735 1042.47 53.855 1042.47 55.92C1042.47 57.635 1041.14 59.455 1039.6 61.03L1031.69 68.975C1031.41 69.29 1031.27 69.605 1031.27 70.025V72.195C1031.27 72.72 1031.59 73 1032.11 73ZM1059.5 73.49C1065.73 73.49 1069.3 68.31 1069.3 60.75C1069.3 53.19 1065.73 48.045 1059.5 48.045C1053.24 48.045 1049.7 53.19 1049.7 60.75C1049.7 68.31 1053.24 73.49 1059.5 73.49ZM1059.5 68.8C1056.21 68.8 1054.5 65.93 1054.5 60.75C1054.5 55.57 1056.21 52.735 1059.5 52.735C1062.76 52.735 1064.47 55.57 1064.47 60.75C1064.47 65.93 1062.76 68.8 1059.5 68.8ZM1072.48 73H1087.22C1087.74 73 1088.02 72.72 1088.02 72.195V69.22C1088.02 68.66 1087.74 68.38 1087.22 68.38H1078.85L1083.79 63.55C1085.89 61.485 1087.64 58.72 1087.64 55.92C1087.64 50.53 1083.65 48.045 1079.69 48.045C1075.84 48.045 1072.1 50.215 1071.68 55.15C1071.64 55.71 1071.96 56.025 1072.48 56.025H1075.67C1076.16 56.025 1076.44 55.745 1076.51 55.22C1076.79 53.505 1078.01 52.735 1079.8 52.735C1081.58 52.735 1082.84 53.855 1082.84 55.92C1082.84 57.635 1081.51 59.455 1079.97 61.03L1072.06 68.975C1071.78 69.29 1071.64 69.605 1071.64 70.025V72.195C1071.64 72.72 1071.96 73 1072.48 73ZM1091.14 73H1105.88C1106.4 73 1106.68 72.72 1106.68 72.195V69.22C1106.68 68.66 1106.4 68.38 1105.88 68.38H1097.51L1102.45 63.55C1104.55 61.485 1106.3 58.72 1106.3 55.92C1106.3 50.53 1102.31 48.045 1098.35 48.045C1094.5 48.045 1090.76 50.215 1090.34 55.15C1090.3 55.71 1090.62 56.025 1091.14 56.025H1094.33C1094.82 56.025 1095.1 55.745 1095.17 55.22C1095.45 53.505 1096.67 52.735 1098.46 52.735C1100.24 52.735 1101.5 53.855 1101.5 55.92C1101.5 57.635 1100.17 59.455 1098.63 61.03L1090.72 68.975C1090.44 69.29 1090.3 69.605 1090.3 70.025V72.195C1090.3 72.72 1090.62 73 1091.14 73Z" fill="white"/>
<path d="M742.115 284H756.85C757.375 284 757.655 283.72 757.655 283.195V280.22C757.655 279.66 757.375 279.38 756.85 279.38H748.485L753.42 274.55C755.52 272.485 757.27 269.72 757.27 266.92C757.27 261.53 753.28 259.045 749.325 259.045C745.475 259.045 741.73 261.215 741.31 266.15C741.275 266.71 741.59 267.025 742.115 267.025H745.3C745.79 267.025 746.07 266.745 746.14 266.22C746.42 264.505 747.645 263.735 749.43 263.735C751.215 263.735 752.475 264.855 752.475 266.92C752.475 268.635 751.145 270.455 749.605 272.03L741.695 279.975C741.415 280.29 741.275 280.605 741.275 281.025V283.195C741.275 283.72 741.59 284 742.115 284ZM769.5 284.49C775.73 284.49 779.3 279.31 779.3 271.75C779.3 264.19 775.73 259.045 769.5 259.045C763.235 259.045 759.7 264.19 759.7 271.75C759.7 279.31 763.235 284.49 769.5 284.49ZM769.5 279.8C766.21 279.8 764.495 276.93 764.495 271.75C764.495 266.57 766.21 263.735 769.5 263.735C772.755 263.735 774.47 266.57 774.47 271.75C774.47 276.93 772.755 279.8 769.5 279.8ZM782.481 284H797.216C797.741 284 798.021 283.72 798.021 283.195V280.22C798.021 279.66 797.741 279.38 797.216 279.38H788.851L793.786 274.55C795.886 272.485 797.636 269.72 797.636 266.92C797.636 261.53 793.646 259.045 789.691 259.045C785.841 259.045 782.096 261.215 781.676 266.15C781.641 266.71 781.956 267.025 782.481 267.025H785.666C786.156 267.025 786.436 266.745 786.506 266.22C786.786 264.505 788.011 263.735 789.796 263.735C791.581 263.735 792.841 264.855 792.841 266.92C792.841 268.635 791.511 270.455 789.971 272.03L782.061 279.975C781.781 280.29 781.641 280.605 781.641 281.025V283.195C781.641 283.72 781.956 284 782.481 284ZM801.143 284H815.878C816.403 284 816.683 283.72 816.683 283.195V280.22C816.683 279.66 816.403 279.38 815.878 279.38H807.513L812.448 274.55C814.548 272.485 816.298 269.72 816.298 266.92C816.298 261.53 812.308 259.045 808.353 259.045C804.503 259.045 800.758 261.215 800.338 266.15C800.303 266.71 800.618 267.025 801.143 267.025H804.328C804.818 267.025 805.098 266.745 805.168 266.22C805.448 264.505 806.673 263.735 808.458 263.735C810.243 263.735 811.503 264.855 811.503 266.92C811.503 268.635 810.173 270.455 808.633 272.03L800.723 279.975C800.443 280.29 800.303 280.605 800.303 281.025V283.195C800.303 283.72 800.618 284 801.143 284Z" fill="white"/>
</g>
<defs>
<clipPath id="clip0_3_895">
<rect width="1259" height="331" fill="white"/>
</clipPath>
</defs>
</svg>
