<svg width="37" height="34" viewBox="0 0 37 34" fill="none" xmlns="http://www.w3.org/2000/svg">
<g filter="url(#filter0_d_3_2460)">
<path d="M11.112 20.6516C12.6948 20.7549 14.1231 20.3575 15.4411 19.3985C14.0295 19.252 13.0941 18.5703 12.5645 17.301C13.0201 17.3195 13.4389 17.3587 13.8523 17.2433C13.7736 17.1372 13.6426 17.1459 13.5378 17.1049C12.3039 16.6251 11.6321 15.7347 11.4829 14.4579C11.4633 14.2918 11.49 14.218 11.6831 14.3131C11.9489 14.4393 12.234 14.5227 12.5272 14.56C12.6107 14.56 12.7233 14.669 12.76 14.4994C11.4852 13.5467 11.1168 11.8218 11.8946 10.6522C12.1907 10.9117 12.4952 11.1793 12.7991 11.4487C14.2854 12.7658 16.0252 13.5196 18.0297 13.6926C18.2436 13.7105 18.3324 13.7047 18.2922 13.4325C18.2055 12.8193 18.3144 12.195 18.6042 11.6441C18.8939 11.0932 19.3506 10.6423 19.9123 10.3523C20.4778 10.0586 21.1233 9.9439 21.7589 10.0242C22.3945 10.1045 22.9885 10.3759 23.4582 10.8004C23.5115 10.855 23.5795 10.8938 23.6545 10.9121C23.7295 10.9305 23.8083 10.9278 23.8818 10.9042C24.4766 10.7567 25.0489 10.5333 25.5836 10.2399C25.3538 10.9515 24.9261 11.4164 24.3219 11.8633C24.9457 11.8154 25.4421 11.6326 26.0001 11.4446C25.6275 11.9786 25.2353 12.4181 24.7508 12.7676C24.5494 12.9135 24.4741 13.064 24.4771 13.3154C24.5274 17.1522 21.8837 20.6545 18.1458 21.6551C15.6958 22.3114 13.3435 22.0363 11.1322 20.7814C11.0901 20.7572 11.0451 20.737 11.0019 20.7151C10.9882 20.6113 11.0522 20.6349 11.112 20.6516Z" fill="#03A8F3"/>
</g>
<defs>
<filter id="filter0_d_3_2460" x="0" y="-0.000732422" width="37.0001" height="34.0005" filterUnits="userSpaceOnUse" color-interpolation-filters="sRGB">
<feFlood flood-opacity="0" result="BackgroundImageFix"/>
<feColorMatrix in="SourceAlpha" type="matrix" values="0 0 0 0 0 0 0 0 0 0 0 0 0 0 0 0 0 0 127 0" result="hardAlpha"/>
<feOffset dy="1"/>
<feGaussianBlur stdDeviation="5.5"/>
<feComposite in2="hardAlpha" operator="out"/>
<feColorMatrix type="matrix" values="0 0 0 0 0 0 0 0 0 0.386719 0 0 0 0 0.5625 0 0 0 0.4 0"/>
<feBlend mode="normal" in2="BackgroundImageFix" result="effect1_dropShadow_3_2460"/>
<feBlend mode="normal" in="SourceGraphic" in2="effect1_dropShadow_3_2460" result="shape"/>
</filter>
</defs>
</svg>
