<svg width="27" height="27" viewBox="0 0 27 27" fill="none" xmlns="http://www.w3.org/2000/svg">
<path d="M24.7918 20.4739V24.6273C24.7918 24.8404 24.7499 25.0513 24.6683 25.2481C24.5867 25.4449 24.4671 25.6237 24.3164 25.7742C24.1656 25.9247 23.9867 26.0441 23.7898 26.1254C23.5929 26.2068 23.3819 26.2485 23.1689 26.2482H2.94514C2.51524 26.2482 2.10296 26.0775 1.79897 25.7735C1.49499 25.4695 1.32422 25.0572 1.32422 24.6273V10.5985C1.32422 10.1686 1.49499 9.75628 1.79897 9.4523C2.10296 9.14832 2.51524 8.97754 2.94514 8.97754H23.1689C23.5988 8.97754 24.0111 9.14832 24.3151 9.4523C24.6191 9.75628 24.7898 10.1686 24.7898 10.5985V14.7519" stroke="white" stroke-miterlimit="10"/>
<path d="M20.4602 14.751H25.0795C25.3231 14.751 25.5568 14.8478 25.729 15.02C25.9013 15.1923 25.9981 15.426 25.9981 15.6696V19.5544C25.9981 19.798 25.9013 20.0317 25.729 20.2039C25.5568 20.3762 25.3231 20.473 25.0795 20.473H20.4602C19.7016 20.473 18.974 20.1716 18.4375 19.6352C17.9011 19.0987 17.5997 18.3711 17.5997 17.6125C17.5996 17.2368 17.6735 16.8647 17.8172 16.5175C17.9609 16.1703 18.1715 15.8549 18.4372 15.5892C18.7028 15.3234 19.0182 15.1126 19.3653 14.9688C19.7124 14.825 20.0845 14.751 20.4602 14.751Z" stroke="white" stroke-miterlimit="10"/>
<path d="M4.46713 8.97712L16.9596 1.56475C17.3294 1.34547 17.7711 1.28196 18.1876 1.38818C18.6042 1.4944 18.9616 1.76165 19.1812 2.13122L19.807 3.18668L21.0144 5.21811L23.2461 8.97913" stroke="white" stroke-miterlimit="10"/>
<path d="M19.8062 3.18652L10.0475 8.97696" stroke="white" stroke-miterlimit="10"/>
<path d="M21.0102 5.21777L14.6755 8.97678" stroke="white" stroke-miterlimit="10"/>
<path d="M20.6969 18.7412C21.3204 18.7412 21.8258 18.2358 21.8258 17.6123C21.8258 16.9888 21.3204 16.4834 20.6969 16.4834C20.0734 16.4834 19.568 16.9888 19.568 17.6123C19.568 18.2358 20.0734 18.7412 20.6969 18.7412Z" fill="white"/>
</svg>
